<?xml version="1.0" standalone="no"?>
<!DOCTYPE svg PUBLIC "-//W3C//DTD SVG 20010904//EN"
 "http://www.w3.org/TR/2001/REC-SVG-20010904/DTD/svg10.dtd">
<svg version="1.0" xmlns="http://www.w3.org/2000/svg"
 width="505.000000pt" height="521.000000pt" viewBox="0 0 505.000000 521.000000"
 preserveAspectRatio="xMidYMid meet"><rect
  x="0"
  y="0"
  width="505"
  height="521"
  fill="#fff"
/>

<g transform="translate(0.000000,521.000000) scale(0.050000,-0.050000)"
fill="#000000" stroke="none">
<path d="M1400 10366 c-16 -6 -52 -20 -78 -30 -44 -16 -33 -27 145 -136 268
-165 951 -632 993 -679 6 -6 82 -65 170 -130 151 -112 569 -445 590 -470 6 -7
37 -33 70 -58 57 -44 283 -247 569 -513 265 -246 715 -707 919 -941 38 -44
110 -124 160 -179 92 -101 213 -242 351 -410 41 -49 90 -108 108 -130 19 -22
60 -76 93 -120 33 -44 65 -84 71 -90 7 -5 52 -64 100 -130 49 -66 94 -124 101
-130 26 -20 517 -720 699 -996 l189 -286 6 146 c7 159 -27 615 -56 745 -10 44
-33 149 -50 231 -34 161 -120 464 -150 530 -10 22 -31 81 -47 130 -123 373
-405 905 -708 1334 -140 198 -165 218 -231 182 -147 -79 -538 10 -744 171
-206 160 -298 297 -387 574 -29 90 -30 329 -2 381 33 61 8 102 -106 178 -58
39 -109 76 -115 82 -10 13 -232 151 -360 224 -155 89 -438 222 -580 273 -89
32 -135 50 -210 81 -33 14 -91 33 -130 41 -38 9 -124 31 -190 49 -66 18 -174
42 -240 53 -137 23 -905 42 -950 23z"/>
<path d="M9971 9855 c-33 -39 -463 -511 -733 -805 -804 -874 -728 -777 -698
-893 13 -48 31 -118 40 -157 9 -38 31 -120 48 -182 18 -61 32 -128 32 -148 0
-21 8 -65 19 -99 21 -70 69 -260 99 -391 39 -172 124 -531 152 -640 15 -60 38
-155 50 -210 12 -55 31 -131 41 -170 24 -87 57 -224 79 -330 9 -44 27 -120 39
-168 36 -140 31 -143 -259 -184 -304 -42 -620 -94 -735 -119 -47 -11 -104 -19
-126 -19 -22 0 -43 -11 -47 -25 -8 -29 -35 -133 -80 -305 -17 -66 -41 -169
-53 -230 -13 -60 -36 -146 -51 -191 -16 -44 -28 -102 -28 -128 0 -27 -8 -76
-19 -110 -22 -74 -71 -265 -101 -401 -12 -55 -37 -151 -54 -214 -42 -151 -44
-149 217 -285 125 -65 259 -136 297 -157 86 -48 313 -170 540 -289 94 -50 220
-117 280 -151 61 -34 135 -74 165 -89 63 -32 58 -50 -59 -205 -404 -533 -770
-1039 -763 -1055 4 -8 88 -135 187 -281 99 -146 189 -281 200 -299 11 -18 27
-42 35 -54 227 -308 224 -328 -32 -244 -78 27 -224 73 -323 103 -99 31 -243
76 -320 100 -77 24 -221 69 -320 99 -99 31 -243 76 -320 101 -77 25 -196 61
-265 81 -131 38 -154 73 -107 164 22 43 50 115 184 475 57 154 113 292 125
307 29 36 -29 77 -212 152 -80 32 -212 89 -295 127 -82 37 -181 81 -220 98
-38 17 -115 51 -170 76 -231 106 -332 150 -339 150 -5 0 -65 26 -135 58 -69
32 -160 72 -201 89 -69 29 -86 52 -75 103 6 30 59 382 80 530 9 72 32 216 49
320 18 105 41 249 50 320 10 72 32 219 50 328 45 290 48 280 -54 224 -47 -26
-206 -110 -355 -187 -148 -77 -378 -196 -510 -265 -302 -157 -563 -293 -920
-480 -370 -193 -496 -261 -520 -283 -11 -11 -26 -156 -32 -323 -52 -1261 -64
-1391 -133 -1365 -40 16 -238 66 -355 91 -44 10 -134 32 -200 49 -66 18 -156
40 -200 50 -97 21 -383 92 -680 169 -200 52 -455 114 -540 132 -224 49 -265
59 -319 80 -76 28 -91 9 -151 -186 -24 -79 -51 -162 -60 -184 -14 -37 -110
-337 -235 -740 -27 -88 -57 -178 -65 -200 -14 -37 -46 -139 -160 -505 -52
-169 -50 -167 -81 -70 -61 192 -319 342 -319 185 0 -84 34 -140 85 -140 15 0
38 -11 51 -24 29 -29 32 -136 4 -136 -11 0 -20 22 -20 50 0 36 -13 53 -51 62
-68 17 -82 -1 -48 -63 21 -41 22 -60 3 -90 -13 -21 -24 -88 -24 -149 l0 -110
65 0 c37 0 97 22 137 48 48 33 80 43 100 31 37 -24 9712 -25 9727 -1 7 12 18
9328 11 9797 0 38 -27 30 -69 -20z m-9831 -9655 c0 -27 -13 -40 -40 -40 -27 0
-40 13 -40 40 0 27 13 40 40 40 27 0 40 -13 40 -40z"/>
<path d="M4844 9468 c-147 -76 -210 -348 -118 -516 228 -418 813 -425 814 -8
0 345 -423 664 -696 524z"/>
<path d="M1789 6219 l-1789 -1788 0 -223 0 -223 88 -81 c95 -87 228 -164 286
-164 44 0 3726 3677 3726 3721 0 17 -117 147 -261 289 l-260 258 -1790 -1789z"/>
<path d="M7051 7741 c-7 -10 3 -148 20 -305 18 -157 40 -367 50 -466 10 -99
31 -301 48 -450 17 -148 37 -326 44 -396 14 -137 39 -177 58 -90 7 31 19 74
28 96 14 34 141 425 253 780 17 55 39 118 48 140 8 22 40 121 70 220 30 99 62
198 70 220 59 151 81 232 70 250 -16 26 -743 27 -759 1z"/>
<path d="M4138 6065 c-15 -19 -38 -53 -50 -75 -12 -22 -44 -80 -72 -130 -27
-49 -80 -144 -116 -210 -37 -66 -82 -142 -101 -170 -96 -142 -87 -145 711
-200 551 -39 833 -61 971 -79 150 -19 253 0 169 31 -22 8 -85 43 -140 78 -55
34 -113 69 -130 77 -16 8 -48 26 -70 39 -79 48 -740 444 -774 464 -19 11 -107
63 -195 115 -185 110 -167 105 -203 60z"/>
</g>
</svg>
