  <svg version="1.0" xmlns="http://www.w3.org/2000/svg"  width="269.000000pt" height="247.000000pt" viewBox="0 0 269.000000 247.000000"  preserveAspectRatio="xMidYMid meet"> <g transform="translate(0.000000,247.000000) scale(0.050000,-0.050000)" fill="#000000" stroke="none"> <path d="M1358 4915 c-2 -14 -2 -32 0 -40 1 -8 -11 -15 -27 -15 -37 0 -170 -65 -171 -84 0 -8 -23 -37 -51 -65 -28 -28 -46 -60 -39 -71 7 -11 3 -20 -9 -20 -11 0 -21 14 -21 31 0 17 -9 26 -21 18 -12 -7 -18 -23 -14 -35 5 -13 -8 -40 -27 -61 -38 -40 -40 -39 -147 58 l-45 41 -67 -46 c-50 -34 -71 -39 -83 -21 -12 20 -15 20 -16 0 0 -14 -15 -25 -33 -25 -51 0 -289 -121 -277 -140 6 -10 -16 -33 -50 -53 -46 -28 -60 -50 -60 -99 0 -34 -18 -85 -40 -113 -22 -28 -40 -57 -40 -65 0 -7 -13 -26 -29 -42 -16 -16 -24 -42 -18 -59 6 -16 2 -29 -9 -29 -19 0 -45 -59 -54 -125 -2 -19 3 -35 13 -35 9 0 17 -10 17 -21 0 -12 -9 -16 -20 -9 -13 8 -20 -75 -20 -234 l0 -247 99 -78 c76 -61 94 -85 78 -105 -12 -14 -16 -26 -9 -26 7 0 4 -17 -7 -38 -17 -33 -14 -37 22 -27 36 9 39 5 22 -27 -11 -21 -18 -76 -15 -123 2 -46 -1 -81 -8 -76 -6 4 -13 -68 -14 -160 -1 -92 6 -163 15 -157 9 6 18 -109 18 -256 3 -641 46 -1359 82 -1373 9 -3 17 -58 17 -122 0 -63 10 -144 22 -180 17 -47 17 -70 0 -87 -12 -12 -21 -67 -20 -123 2 -56 7 -85 12 -66 5 20 17 30 28 24 10 -6 18 12 18 40 0 28 -11 51 -25 51 -18 1 -17 6 3 18 31 20 35 259 13 702 -6 127 -21 505 -32 842 -23 684 -31 816 -46 832 -10 10 -1 149 19 280 9 58 17 65 98 77 49 7 99 26 112 41 41 50 58 30 58 -71 0 -86 5 -98 35 -89 32 10 32 9 1 -11 -105 -68 15 -518 177 -661 67 -59 82 -104 23 -67 -146 90 -214 161 -232 247 -18 83 -19 85 -22 24 -1 -39 -10 -61 -22 -54 -34 21 -22 -8 20 -50 22 -22 41 -65 43 -95 1 -30 4 -77 7 -105 2 -27 11 -288 19 -580 9 -291 18 -584 21 -650 3 -66 6 -181 7 -255 4 -164 105 -193 126 -35 4 28 20 50 35 50 16 0 33 12 38 28 7 21 -6 24 -63 14 -40 -8 -73 -6 -73 3 0 32 63 105 91 105 16 0 29 10 29 21 0 12 -8 17 -17 11 -21 -13 -123 31 -123 53 0 8 10 15 22 15 12 0 17 13 11 29 -6 15 0 32 13 36 32 11 28 989 -4 1021 -31 31 -27 55 6 42 15 -6 33 -2 39 8 18 29 106 4 147 -40 20 -22 34 -44 31 -48 -16 -26 0 -29 28 -5 30 24 33 22 22 -19 -8 -33 -2 -50 22 -59 39 -15 84 -57 85 -79 0 -9 20 -14 44 -11 35 4 38 1 14 -15 -16 -10 -21 -21 -10 -22 82 -11 130 -37 130 -71 0 -22 18 -26 80 -17 84 13 115 -20 35 -37 -25 -5 4 -8 63 -6 71 2 111 -6 117 -22 5 -15 -10 -25 -37 -25 -59 0 -23 -41 40 -45 25 -2 39 -14 34 -28 -6 -16 1 -21 21 -13 20 8 26 27 18 60 -11 44 -7 48 43 42 46 -5 55 -15 51 -56 -3 -34 0 -41 12 -24 24 38 173 24 173 -16 0 -16 7 -35 15 -41 8 -6 -3 -31 -25 -54 -44 -47 -34 -106 17 -103 21 1 24 5 8 11 -37 15 -30 63 13 90 21 13 33 36 28 51 -13 33 27 35 41 1 8 -19 15 -18 30 4 11 16 16 37 10 47 -6 9 8 5 32 -10 33 -20 36 -27 12 -32 -40 -9 -40 -64 -1 -64 17 0 30 9 30 20 0 11 9 20 20 20 11 0 20 -22 20 -50 0 -27 11 -51 25 -52 81 -6 187 9 201 29 10 14 14 8 10 -17 -5 -29 -24 -42 -71 -46 -73 -7 -86 -34 -25 -50 22 -6 40 -2 40 9 0 11 8 14 18 8 10 -6 23 0 28 14 7 20 17 20 51 0 36 -21 43 -20 43 5 0 35 37 39 80 8 25 -18 25 -20 -5 -11 -22 8 -35 1 -35 -17 0 -15 16 -37 35 -48 22 -13 25 -21 9 -21 -18 -1 -22 -15 -13 -44 9 -28 6 -38 -9 -28 -14 8 -22 -4 -22 -33 1 -37 4 -40 20 -16 11 17 20 21 20 9 0 -12 -9 -30 -21 -42 -12 -12 -24 -80 -27 -151 -3 -72 -12 -140 -19 -151 -7 -12 -2 -26 12 -32 20 -8 20 -10 0 -11 -14 -1 -25 -15 -25 -30 0 -16 11 -33 25 -38 16 -6 10 -15 -15 -25 -22 -9 -48 -29 -57 -45 -13 -22 -21 -23 -33 -4 -10 17 -36 2 -87 -48 -44 -45 -91 -72 -122 -72 -32 0 -51 -11 -51 -30 0 -16 -25 -35 -55 -43 -30 -7 -62 -23 -70 -35 -10 -15 -14 -14 -15 3 0 41 -49 28 -70 -19 -22 -48 -70 -73 -70 -36 0 12 8 17 18 11 10 -6 23 2 29 18 9 24 3 25 -37 7 -27 -12 -43 -31 -36 -42 7 -11 2 -14 -10 -6 -22 13 -214 -56 -254 -92 -12 -11 -6 -13 15 -5 25 9 32 5 25 -14 -6 -15 -33 -28 -60 -30 -30 -2 -45 6 -37 18 8 12 4 15 -9 7 -12 -7 -18 -25 -12 -40 8 -20 -4 -24 -44 -17 -37 8 -50 4 -40 -12 9 -14 3 -18 -17 -11 -19 8 -53 -11 -89 -50 -32 -34 -67 -62 -79 -62 -11 0 -27 -10 -35 -23 -22 -36 119 -2 260 62 238 109 303 137 442 192 286 113 386 165 399 207 8 23 30 42 50 42 19 0 57 17 84 38 76 60 161 63 170 6 4 -27 -1 -41 -13 -34 -11 7 -20 3 -20 -9 0 -11 -13 -21 -30 -21 -42 0 -38 -39 5 -42 19 -2 44 -1 55 1 11 3 13 -2 5 -10 -8 -9 -5 -27 8 -42 30 -36 4 -35 -155 7 -178 48 -183 38 -109 -224 34 -119 66 -222 72 -228 19 -19 45 41 40 91 -3 26 2 47 12 47 9 0 17 36 17 79 0 67 5 78 35 67 19 -7 28 -5 20 4 -8 9 -35 18 -60 20 -25 2 -42 12 -39 22 6 20 83 13 114 -11 11 -9 35 -13 54 -10 19 3 29 -5 24 -18 -16 -43 103 -93 225 -96 100 -2 107 -4 47 -16 l-70 -13 95 -9 c52 -5 98 -1 101 9 3 10 31 9 65 -3 l59 -22 -60 -3 c-52 -3 -47 -7 40 -32 55 -16 120 -25 145 -21 28 5 65 -11 96 -40 50 -46 60 -47 385 -45 l334 2 -124 33 c-68 18 -129 39 -137 47 -18 18 212 -40 256 -64 43 -25 456 -27 418 -2 -15 9 -20 22 -10 28 27 16 128 -8 116 -28 -6 -10 63 -18 155 -17 l166 1 -120 39 c-66 22 -155 42 -197 44 l-77 4 46 37 c25 20 62 32 82 27 20 -5 32 -2 26 7 -27 44 50 64 154 39 59 -14 133 -31 166 -38 55 -12 59 -20 53 -87 -4 -46 3 -74 17 -74 12 0 17 9 10 20 -7 11 -2 20 11 20 16 0 19 18 9 55 -8 30 -18 85 -21 122 -6 71 -29 114 -29 55 0 -29 -64 -32 -93 -5 -25 25 -24 133 1 133 18 0 32 -14 32 -32 0 -20 11 -28 29 -21 15 6 33 0 40 -13 8 -18 14 -18 22 -1 8 17 46 14 140 -13 l129 -37 0 192 c0 105 -7 185 -15 177 -8 -9 -15 -26 -15 -39 -1 -12 -17 -20 -36 -17 -34 6 -35 -23 -4 -128 8 -26 -87 -85 -151 -95 -57 -8 -168 96 -150 141 9 23 18 25 39 8 15 -13 42 -17 60 -10 25 10 29 4 18 -25 -12 -33 -10 -34 21 -9 19 15 32 42 29 60 -3 18 2 43 11 57 8 14 6 25 -5 25 -11 0 -29 -16 -40 -35 -13 -22 -21 -25 -21 -9 -1 17 -15 22 -39 15 -22 -7 -51 1 -70 20 -29 29 -33 29 -44 0 -14 -37 -66 -42 -61 -6 8 54 36 71 102 66 38 -3 74 5 79 17 6 15 15 13 28 -5 10 -14 24 -26 31 -25 7 1 15 1 18 -1 45 -23 108 -3 100 32 -5 24 -2 32 8 20 31 -37 77 -21 71 24 -3 24 4 49 15 56 31 19 26 51 -8 51 -17 0 -44 -25 -61 -55 -17 -30 -28 -40 -25 -21 3 18 -2 34 -10 35 -62 5 -95 -2 -95 -21 0 -13 18 -18 41 -12 26 7 38 2 33 -13 -7 -22 -41 -23 -194 -7 -73 7 -91 40 -51 92 16 22 14 26 -9 18 -16 -6 -29 -25 -27 -43 1 -18 -7 -33 -18 -33 -11 0 -9 -13 6 -31 21 -25 18 -35 -13 -58 -24 -17 -42 -20 -50 -8 -7 12 -18 6 -25 -12 -7 -18 1 -54 19 -81 28 -43 28 -52 -2 -98 -19 -28 -28 -60 -21 -71 24 -39 -108 -201 -189 -234 -43 -17 -101 -61 -130 -99 -76 -99 -48 -103 -760 111 -154 47 -338 98 -410 115 -71 17 -186 52 -255 78 -69 27 -138 48 -153 48 -39 0 -80 53 -53 70 12 7 16 21 10 31 -34 55 -25 102 23 120 72 27 86 24 74 -19 -5 -21 1 -44 13 -52 17 -10 17 -21 1 -41 -17 -19 -17 -38 1 -71 22 -41 25 -42 44 -9 16 29 23 31 37 9 37 -60 60 12 28 88 -40 98 -38 170 10 264 22 43 40 95 40 114 0 29 17 36 90 36 92 0 126 -32 45 -44 -113 -16 -175 -291 -85 -376 28 -26 50 -59 50 -73 0 -42 71 -67 194 -67 82 -1 107 -6 86 -20 -24 -16 -21 -19 16 -20 26 0 60 -14 77 -30 16 -17 45 -30 63 -30 24 1 20 8 -14 25 -85 44 -73 72 22 53 47 -9 92 -17 100 -17 8 -1 33 -21 55 -45 22 -23 47 -37 55 -28 8 8 3 21 -11 30 -20 12 -19 20 4 39 22 19 31 18 40 -6 6 -17 30 -31 53 -31 24 0 50 -20 64 -50 22 -49 56 -68 56 -32 0 9 18 22 40 28 41 10 37 74 -4 74 -11 0 -16 -12 -10 -26 5 -14 -5 -27 -24 -28 -33 -3 -67 55 -89 154 -16 67 -110 114 -98 48 10 -48 -63 -138 -96 -118 -47 30 3 246 55 236 35 -7 46 130 16 200 -16 35 -29 49 -29 30 -1 -18 -10 -39 -21 -46 -12 -8 -16 20 -9 74 17 138 -85 426 -151 426 -40 0 -50 10 -51 50 -1 28 -12 70 -26 94 -22 42 -20 140 5 220 10 32 -3 36 -113 37 -521 3 -917 781 -782 1539 91 513 318 870 712 1120 27 17 24 26 -27 66 -40 33 -54 37 -46 15 10 -24 4 -28 -23 -18 -27 10 -32 7 -19 -15 12 -22 10 -23 -10 -4 -21 19 -19 30 10 58 33 34 32 36 -9 52 -24 8 -38 25 -31 36 7 11 23 15 35 7 14 -9 17 2 10 30 -6 24 -3 38 7 32 10 -6 18 -1 18 12 0 29 -126 9 -137 -22 -3 -10 -13 -15 -22 -10 -8 6 -52 -21 -96 -60 -45 -38 -86 -69 -93 -69 -6 0 -42 -31 -81 -70 -38 -38 -59 -70 -45 -70 17 -1 16 -6 -3 -18 -22 -14 -22 -24 -1 -57 21 -35 19 -50 -11 -98 l-37 -57 63 60 c61 59 85 106 40 78 -15 -9 -18 -5 -9 9 8 13 23 19 32 13 9 -6 23 -2 30 10 7 11 21 20 32 20 11 0 -12 -34 -51 -75 -39 -41 -76 -91 -82 -110 -7 -19 -20 -35 -30 -35 -11 0 -19 -13 -19 -29 0 -45 -34 -55 -68 -20 -36 36 -42 69 -12 69 11 0 20 -13 20 -30 0 -16 8 -30 18 -30 25 0 43 54 29 90 -6 16 -19 25 -29 19 -10 -6 -12 3 -6 20 7 17 20 26 30 20 10 -6 13 2 6 18 -6 16 -1 35 11 42 24 15 9 51 -21 51 -11 0 -15 -9 -8 -20 7 -11 3 -20 -8 -20 -11 0 -15 -15 -8 -33 9 -23 5 -29 -11 -19 -21 13 -34 -25 -25 -75 2 -9 -17 -10 -42 -3 -27 7 -36 6 -22 -4 16 -11 18 -27 5 -47 -14 -22 -18 -22 -19 -3 0 21 -7 20 -30 -3 -16 -17 -30 -36 -30 -44 0 -7 14 -8 30 -2 17 7 30 4 30 -5 0 -10 -14 -23 -31 -30 -22 -8 -28 -26 -19 -57 10 -35 8 -38 -8 -15 -12 17 -22 20 -22 7 0 -12 -17 -27 -39 -32 -36 -10 -45 -61 -15 -84 8 -6 10 -5 4 2 -12 16 28 67 52 67 29 0 21 -53 -12 -80 -16 -14 -30 -42 -30 -64 0 -21 -8 -34 -17 -28 -10 6 -13 -11 -8 -39 11 -55 8 -57 -62 -30 -40 15 -56 10 -86 -25 l-37 -44 43 36 c29 24 48 29 56 15 8 -12 22 -16 32 -10 11 6 19 -3 19 -21 0 -18 -9 -27 -21 -20 -13 8 -17 -5 -11 -36 5 -28 -8 -77 -29 -112 -21 -34 -32 -62 -24 -62 8 0 12 -45 8 -100 -4 -55 -16 -100 -26 -100 -11 0 -14 -19 -6 -43 8 -25 6 -37 -6 -30 -11 7 -18 -14 -17 -46 1 -31 8 -53 16 -49 7 5 19 -1 26 -12 7 -11 -1 -25 -18 -32 -23 -9 -25 -23 -11 -60 10 -26 13 -48 6 -48 -7 0 -1 -13 11 -28 16 -19 17 -30 3 -35 -14 -5 -15 -27 -2 -67 11 -33 30 -138 43 -234 13 -96 32 -170 41 -164 9 6 17 -17 17 -51 0 -38 10 -61 27 -61 19 0 24 -17 17 -53 -7 -40 -3 -49 16 -37 20 12 23 5 15 -27 -6 -24 -2 -43 9 -43 11 0 15 -13 10 -28 -6 -15 -5 -34 2 -42 8 -7 14 -21 14 -31 0 -10 47 -67 105 -127 58 -61 105 -122 105 -137 0 -40 42 -75 90 -75 22 0 62 -14 86 -32 25 -17 59 -26 76 -20 20 8 25 3 16 -13 -8 -14 -7 -18 2 -10 9 8 28 5 42 -7 21 -17 21 -10 4 37 -29 75 -121 118 -187 88 -49 -22 -109 -12 -109 18 0 16 79 50 103 44 7 -2 18 10 25 26 12 33 -34 60 -67 40 -12 -8 -21 -4 -21 7 0 11 29 22 63 26 35 3 68 17 72 31 7 19 -4 21 -45 5 -46 -18 -55 -15 -64 20 -6 22 -20 34 -31 27 -12 -8 -15 -3 -7 10 8 13 32 23 54 23 26 0 35 -9 26 -23 -10 -16 -1 -20 28 -12 26 7 46 0 53 -19 6 -17 24 -25 41 -19 16 6 34 2 41 -8 7 -11 5 -19 -5 -17 -86 15 -126 -67 -45 -92 25 -8 38 -25 31 -41 -16 -43 95 -109 317 -191 178 -66 202 -80 207 -126 5 -42 0 -49 -29 -38 -21 8 -26 16 -11 21 13 5 19 17 12 28 -7 12 -22 10 -40 -5 -22 -18 -81 -8 -273 48 -135 38 -339 90 -455 113 -308 63 -610 150 -959 275 -171 61 -330 112 -354 113 -24 2 -40 7 -35 11 4 5 -72 48 -170 95 -967 469 -610 2724 446 2807 293 23 996 20 1342 -6 l320 -24 64 -180 c53 -145 64 -206 60 -315 l-4 -135 100 10 c55 6 138 20 183 32 l84 22 -9 148 c-4 81 -26 194 -48 252 -48 127 -50 125 87 89 1005 -262 1235 -2001 389 -2933 -25 -28 -77 -72 -116 -100 l-70 -49 54 72 c30 40 48 79 40 88 -8 8 -3 9 11 1 14 -8 26 -3 27 12 3 61 17 102 45 133 16 18 36 58 44 88 11 45 19 51 50 35 41 -23 70 29 47 87 -7 18 -3 33 8 33 24 0 68 118 52 142 -6 10 2 23 18 29 16 6 29 34 29 61 0 54 17 82 38 62 7 -7 1 -27 -13 -44 -14 -17 -16 -30 -4 -30 11 0 30 27 41 61 13 36 14 56 2 49 -10 -7 -19 8 -19 34 1 38 4 41 22 16 18 -25 20 -24 10 5 -6 20 -1 60 11 90 55 140 62 743 10 935 -74 274 -86 310 -102 296 -9 -9 -11 20 -5 64 6 44 7 64 1 45 -8 -30 -17 -26 -59 23 -41 50 -45 67 -28 113 12 30 17 59 12 64 -6 5 -16 -15 -24 -45 -11 -46 -17 -49 -32 -23 -11 20 -10 48 4 72 17 32 15 38 -8 29 -15 -6 -34 -1 -42 11 -7 13 -30 17 -50 11 -52 -17 -74 30 -29 63 28 21 30 27 7 27 -17 0 -39 -8 -49 -18 -11 -10 -44 -2 -79 20 -40 25 -49 38 -26 38 18 0 39 -9 46 -20 7 -11 22 -20 34 -20 13 0 12 11 -4 30 -20 24 -20 30 3 32 15 1 0 9 -32 19 -46 14 -64 11 -76 -12 -25 -43 -53 -35 -41 11 6 24 1 40 -14 40 -13 0 -19 -13 -13 -29 9 -24 -2 -27 -53 -18 -46 9 -22 -10 82 -64 406 -212 614 -677 581 -1299 -12 -242 -47 -414 -105 -527 -18 -33 -32 -70 -32 -82 0 -11 -27 -64 -60 -118 -65 -106 -73 -132 -35 -112 14 7 6 -4 -18 -24 -24 -20 -89 -93 -146 -162 -100 -122 -161 -153 -212 -108 -36 31 -364 109 -390 92 -11 -6 -19 0 -19 15 0 18 -31 26 -98 26 -54 0 -88 -7 -75 -15 13 -8 2 -15 -27 -16 -44 -2 -42 -5 20 -27 99 -36 218 -57 180 -32 -46 30 3 25 188 -19 87 -20 169 -33 183 -28 43 17 109 -119 109 -223 0 -98 -52 -196 -143 -270 -41 -34 -11 -189 56 -292 22 -34 24 -55 9 -84 -11 -21 -16 -43 -11 -49 6 -5 19 -67 30 -137 32 -209 41 -238 70 -238 30 0 99 142 132 274 12 47 30 86 41 86 10 0 13 -18 6 -40 -19 -59 5 -49 39 17 31 61 25 177 -13 257 -22 44 21 146 61 146 29 0 69 106 82 215 10 78 7 105 -12 105 -16 0 -21 -13 -13 -33 9 -23 5 -29 -11 -19 -30 19 -30 72 1 72 19 0 19 5 0 24 -30 30 -31 58 -2 51 13 -3 33 22 45 55 25 65 70 89 66 36 -2 -25 17 -35 74 -39 42 -3 88 -14 102 -26 13 -11 32 -14 40 -6 9 8 10 -4 3 -28 -8 -24 -6 -48 3 -54 32 -20 15 83 -20 122 -19 21 -29 44 -22 52 8 7 3 13 -9 13 -13 0 -18 14 -11 30 7 20 -1 30 -23 30 -26 0 -32 -12 -25 -50 11 -58 -24 -69 -39 -11 -6 23 -21 34 -38 27 -17 -6 -28 3 -28 22 0 23 19 32 71 32 55 0 69 7 65 33 -3 18 5 37 19 42 14 4 25 -1 25 -13 0 -12 10 -22 21 -22 12 0 15 10 8 22 -9 14 4 19 34 15 45 -6 57 3 57 41 0 20 -99 18 -131 -2 -11 -7 -32 -6 -47 3 -19 12 -17 18 9 28 21 9 30 28 24 52 -8 28 -2 35 21 26 20 -8 26 -4 16 12 -8 12 -4 23 9 23 14 0 19 17 14 39 -8 27 -2 35 18 27 29 -11 87 26 87 56 0 10 -13 18 -29 18 -16 0 -39 18 -51 41 -20 37 -17 39 29 27 54 -13 67 8 27 48 -19 19 -16 24 10 24 19 0 34 14 34 30 0 17 -10 30 -21 30 -12 0 -16 9 -10 19 7 11 25 14 42 8 16 -6 29 -1 29 11 0 12 35 22 80 22 94 0 108 28 18 34 -67 5 -118 37 -117 73 0 13 9 7 21 -12 16 -28 28 -31 59 -14 44 23 52 56 14 52 -14 -2 -29 6 -35 17 -5 11 15 21 45 22 72 3 98 28 29 28 -35 0 -49 9 -43 26 6 15 -9 44 -33 65 l-42 39 57 11 c41 7 55 20 51 46 -7 42 32 98 58 82 10 -6 18 3 18 20 0 18 -13 37 -30 44 -52 20 -37 87 20 87 54 0 68 29 22 46 -87 34 -131 -36 -114 -179 5 -37 -36 -127 -57 -127 -23 0 -3 64 26 83 13 9 11 25 -6 45 -17 22 -18 32 -3 32 12 0 22 23 22 52 0 47 -5 50 -65 37 -63 -14 -64 -13 -30 25 19 22 30 44 24 50 -5 6 19 23 55 37 36 15 78 39 92 53 36 35 13 33 -44 -5 -54 -35 -92 53 -47 108 22 25 -8 62 -50 63 -33 0 -12 56 25 66 47 12 53 65 10 81 -18 7 -30 0 -30 -18 0 -39 -33 -37 -48 3 -20 52 -14 68 27 68 49 0 70 32 32 47 -17 6 -35 2 -42 -9 -25 -40 -55 -4 -57 68 -1 49 7 74 24 74 15 0 21 -9 14 -20 -7 -11 7 -20 31 -20 43 0 43 0 -4 39 -54 45 -31 114 36 107 20 -3 26 0 12 6 -44 20 -27 48 28 48 52 0 52 1 17 40 -71 79 -115 44 -139 -110 -1 -11 -16 -16 -32 -12 -16 4 -46 7 -67 6 -29 -2 -32 4 -15 21 32 32 30 42 -28 104 -33 36 -47 67 -38 88 37 89 34 98 -22 88 -38 -8 -51 -4 -41 12 8 13 5 23 -7 23 -43 0 -20 60 24 62 29 1 35 5 15 12 -16 6 -48 28 -70 48 -26 22 -63 34 -100 30 -71 -8 -114 5 -99 30 6 10 0 18 -13 18 -14 0 -19 6 -12 13 8 7 4 25 -8 39 -16 19 -10 32 20 52 53 32 53 49 0 77 -24 13 -37 14 -31 3 7 -11 -3 -26 -22 -33 -27 -10 -28 -17 -7 -30 18 -11 20 -20 4 -30 -12 -7 -22 -4 -22 8 0 11 -14 21 -31 21 -18 0 -45 14 -62 30 -16 17 -21 30 -10 30 12 0 26 -9 33 -20 7 -11 28 -20 46 -20 42 1 -50 79 -93 80 -23 0 -23 6 -3 30 27 33 11 37 -115 30 -50 -2 -65 5 -67 33 -1 26 -6 22 -16 -13 l-15 -50 -15 45 c-15 47 -68 63 -67 20 3 -74 -6 -93 -38 -81 -25 10 -31 5 -22 -18 9 -23 2 -29 -25 -22 -21 6 -33 22 -27 36 14 36 -64 75 -117 59 -33 -11 -39 -7 -30 19 8 20 2 32 -16 32 -17 0 -24 -12 -17 -30 6 -16 2 -30 -9 -30 -12 0 -25 -16 -30 -35 -9 -33 -9 -33 -12 0 -1 19 -12 35 -24 35 -12 0 -17 14 -11 30 9 23 -4 30 -56 30 -48 0 -71 -10 -77 -35 -9 -33 -9 -33 -12 0 -3 45 -2020 55 -2024 10z m2398 -92 c7 -21 0 -22 -34 -4 -23 12 -42 15 -42 5 0 -9 22 -29 49 -44 l49 -26 -54 -75 c-30 -42 -57 -73 -60 -70 -11 11 42 111 59 111 9 0 17 10 17 21 0 12 -24 3 -53 -20 -74 -58 -94 -52 -79 22 21 108 121 162 148 80z m-2929 -339 c6 -8 -24 -69 -65 -135 -41 -65 -87 -150 -101 -189 -15 -38 -48 -115 -74 -170 -64 -136 -108 -343 -118 -560 -5 -99 -9 -181 -9 -183 0 -1 -79 27 -175 63 -196 74 -191 65 -157 280 43 271 111 478 206 620 108 163 136 188 238 210 53 12 106 30 117 39 18 14 66 30 115 39 7 1 18 -5 23 -14z m1870 -2214 c-12 -13 -24 -10 -36 8 -9 15 -26 21 -37 14 -12 -7 -26 -4 -33 6 -6 11 9 22 34 26 55 8 100 -25 72 -54z m1677 -732 c1 -37 -1 -52 -7 -33 -9 31 -14 31 -57 3 -31 -20 -51 -23 -59 -9 -7 12 0 21 17 21 17 0 37 23 44 51 18 71 57 50 62 -33z m-1637 -60 c-21 -13 -19 -17 8 -18 35 0 48 -30 20 -47 -15 -9 -105 54 -105 75 0 6 15 5 33 -2 23 -9 29 -5 19 10 -9 16 -3 19 19 11 26 -10 27 -16 6 -29z m1571 -50 c7 -17 11 -55 10 -85 -3 -53 -3 -52 -17 7 -13 52 -17 55 -31 23 -28 -65 -110 -144 -110 -106 0 18 9 33 20 33 11 0 35 36 52 80 34 85 56 99 76 48z m-1601 -18 c28 -18 45 -48 43 -75 -4 -60 -36 -49 -58 20 -10 30 -28 62 -40 70 -12 8 -15 15 -6 15 8 0 36 -14 61 -30z m413 -48 c0 -16 -6 -23 -13 -16 -7 7 -27 5 -45 -5 -26 -14 -34 -9 -36 18 -2 27 10 36 45 34 28 -2 49 -15 49 -31z m76 -59 c8 -50 -26 -59 -44 -11 -19 49 -14 72 13 63 14 -4 28 -28 31 -52z m-261 11 c90 4 24 -143 -89 -198 -66 -32 -77 -62 -37 -102 62 -62 74 -134 41 -233 -45 -137 -49 -331 -6 -373 34 -35 297 -127 361 -128 19 0 35 -10 35 -22 0 -12 -14 -17 -32 -10 -17 7 -56 17 -85 24 -66 14 -294 84 -368 112 -40 15 -55 35 -55 71 0 42 5 46 30 25 17 -14 37 -20 44 -13 7 7 1 13 -13 13 -19 0 -23 23 -16 85 6 47 6 74 1 60 -17 -45 -41 -26 -51 40 -7 42 4 93 29 143 41 80 37 252 -5 252 -40 0 -17 59 42 108 50 42 60 63 52 113 -9 55 -6 59 34 46 23 -8 63 -14 88 -13z m389 -21 c42 -42 23 -198 -21 -175 -18 9 -46 13 -63 8 -19 -5 -16 3 9 23 28 22 33 37 17 53 -15 15 -14 35 2 69 26 57 22 56 56 22z m177 -171 c-29 -54 -10 -91 70 -134 55 -29 109 -110 109 -161 0 -20 -58 -3 -80 23 -14 17 -32 30 -41 30 -29 0 29 -114 94 -185 86 -95 130 -166 113 -183 -8 -8 -3 -22 12 -31 41 -25 8 -59 -43 -44 -78 23 -128 61 -102 78 43 28 -23 144 -90 157 -78 16 -122 435 -60 578 l25 60 7 -74 c4 -41 -2 -92 -14 -114z m-361 -15 c0 -84 -13 -80 -39 10 -14 50 -12 63 10 63 20 0 29 -23 29 -73z m284 -292 c11 -68 -23 -138 -54 -109 -19 18 -18 29 3 50 32 32 35 64 6 64 -12 0 -16 9 -9 20 21 34 47 22 54 -25z m380 -105 c55 21 85 -43 48 -100 -18 -27 -39 -50 -46 -50 -7 0 -7 6 0 13 16 15 -41 127 -64 127 -10 0 -24 15 -31 34 -12 31 -10 31 25 -1 21 -19 52 -29 68 -23z m-211 -123 c14 -57 -5 -102 -58 -135 -49 -30 -64 -1 -27 51 18 25 32 66 32 91 0 63 36 58 53 -7z m54 -410 c9 -35 3 -38 -54 -27 -112 23 -131 32 -122 57 16 41 163 16 176 -30z"/> <path d="M357 3989 c-20 -38 -16 -127 7 -141 15 -10 19 -4 11 16 -7 17 -5 39 4 49 9 9 10 34 2 56 -8 21 -19 30 -24 20z"/> <path d="M4285 4865 c-66 -11 -55 -38 15 -38 33 0 60 7 60 15 0 23 -25 31 -75 23z"/> <path d="M1620 4640 c-27 -50 -4 -50 60 0 49 39 50 39 6 40 -25 0 -54 -18 -66 -40z"/> <path d="M4824 4446 c4 -24 27 -36 71 -38 80 -4 81 3 6 41 -75 39 -85 39 -77 -3z"/> <path d="M1927 4429 c-15 -39 -1 -53 39 -38 17 7 27 25 21 41 -15 37 -45 36 -60 -3z"/> <path d="M2626 4370 c2 -24 22 -43 49 -46 25 -4 45 -15 45 -25 0 -11 10 -19 23 -19 13 0 8 17 -13 40 -20 22 -48 40 -61 40 -14 0 -31 11 -37 25 -6 14 -9 7 -6 -15z"/> <path d="M1895 4297 c-51 -28 -43 -53 15 -50 27 2 50 14 50 27 0 35 -27 45 -65 23z"/> <path d="M1329 4238 c-10 -15 -7 -19 8 -10 13 8 23 4 23 -9 0 -15 -20 -20 -51 -14 -36 7 -48 2 -42 -15 7 -17 -3 -22 -28 -15 -22 5 -39 18 -39 27 0 10 -9 18 -20 18 -36 0 -21 -37 20 -50 22 -7 35 -21 29 -31 -6 -10 -31 -6 -55 10 -30 20 -54 23 -74 10 -25 -15 -23 -18 9 -19 38 0 38 0 0 -29 -41 -30 -2 -34 45 -5 13 8 30 4 37 -8 8 -12 3 -29 -10 -37 -18 -11 -15 -19 8 -28 18 -7 29 -5 23 3 -20 33 26 77 47 45 10 -16 14 -36 9 -44 -5 -8 0 -20 12 -27 26 -16 18 95 -9 117 -12 9 -3 10 19 2 22 -8 56 -15 75 -16 40 -2 46 -24 13 -44 -12 -8 -29 -3 -38 11 -8 13 -20 16 -26 6 -6 -10 6 -29 27 -42 24 -15 39 -16 39 -4 0 11 10 20 22 20 12 0 18 -11 13 -25 -7 -16 10 -25 48 -25 37 0 54 9 48 25 -8 19 -1 19 30 0 21 -14 39 -35 39 -47 0 -13 13 -34 30 -48 16 -13 24 -34 17 -45 -8 -13 -3 -15 11 -6 19 11 17 23 -7 50 -17 19 -31 46 -31 60 0 14 18 4 39 -22 l39 -47 -12 50 c-9 41 -7 46 15 25 39 -37 80 -31 65 8 -9 23 -5 29 11 19 12 -8 23 -28 23 -45 0 -20 12 -26 38 -18 27 9 42 2 48 -23 7 -28 10 -26 12 9 2 49 16 55 62 25 26 -17 25 -19 -5 -20 -19 0 -35 -9 -35 -21 0 -14 12 -14 39 0 52 28 124 29 81 1 -16 -11 -21 -20 -9 -20 12 0 31 10 44 23 29 29 92 5 78 -31 -7 -18 1 -26 23 -22 19 4 39 8 44 9 6 1 -3 10 -18 20 -30 18 -45 121 -18 121 9 0 16 -9 16 -20 0 -11 8 -20 17 -20 10 0 13 22 8 50 -10 53 -105 67 -105 16 0 -17 -31 -27 -85 -29 l-85 -2 70 -13 c39 -7 61 -18 50 -25 -33 -21 -130 5 -130 35 0 19 24 28 72 28 63 0 69 4 48 30 -20 25 -19 30 8 30 17 0 32 9 32 21 0 14 12 15 33 3 38 -22 106 -8 142 28 33 33 32 39 -10 43 -19 2 -64 7 -100 11 -56 7 -70 -2 -105 -60 -22 -38 -67 -77 -100 -89 -33 -11 -55 -29 -49 -39 6 -10 -3 -12 -20 -6 -52 20 -39 86 14 74 44 -11 44 -11 5 20 l-40 32 40 30 c35 27 35 31 6 31 -37 1 -149 -94 -142 -119 3 -9 -14 -11 -38 -5 -27 7 -38 4 -29 -10 8 -12 3 -29 -10 -37 -14 -8 -18 -6 -10 7 7 11 -6 42 -29 68 -22 26 -36 36 -29 23 6 -13 3 -29 -9 -36 -11 -7 -20 -22 -20 -34 0 -12 14 -10 35 7 31 24 32 24 9 -7 -15 -18 -40 -29 -56 -22 -18 7 -22 19 -11 33 45 57 9 119 -36 64 -15 -18 -49 -27 -84 -23 -59 7 -105 32 -59 32 31 0 21 84 -11 94 -13 5 -30 -3 -38 -16z m870 -37 c33 -21 27 -34 -20 -44 -30 -7 -39 3 -39 43 0 25 21 25 59 1z"/> <path d="M1640 4181 c0 -44 30 -69 60 -51 13 8 13 25 -1 51 -26 50 -59 50 -59 0z"/> <path d="M3277 4059 c26 -21 57 -33 68 -26 26 16 -39 67 -84 66 -23 0 -19 -11 16 -40z"/> <path d="M3453 4085 c-6 -10 7 -34 30 -53 22 -19 35 -47 30 -63 -15 -37 27 -62 47 -28 17 27 80 -17 80 -57 0 -11 14 -30 30 -44 25 -21 30 -18 30 16 0 51 -93 164 -134 164 -17 0 -47 18 -67 41 -19 23 -40 33 -46 24z"/> <path d="M2343 4000 c-46 -33 -81 -54 -78 -45 3 8 -4 15 -15 15 -11 0 -21 -31 -23 -69 -3 -46 2 -59 13 -41 10 16 13 35 8 43 -5 8 9 11 30 7 27 -5 36 1 29 19 -5 15 0 33 12 40 11 7 21 5 21 -6 0 -24 96 -15 123 12 14 14 -2 18 -46 13 -49 -6 -59 -2 -37 12 17 11 46 20 66 20 20 0 31 9 24 20 -19 31 -37 25 -127 -40z"/> <path d="M3394 4008 c6 -18 -1 -40 -16 -50 -21 -13 -17 -17 16 -18 58 0 74 30 35 68 -40 41 -51 40 -35 0z"/> <path d="M3180 3996 c0 -27 35 -34 92 -17 64 19 58 25 -32 29 -33 1 -60 -4 -60 -12z"/> <path d="M5246 3953 c-6 -9 0 -27 12 -39 16 -16 22 -16 22 2 0 13 23 24 50 24 28 0 50 9 50 19 0 23 -119 18 -134 -6z"/> <path d="M3320 3870 c0 -16 9 -30 20 -30 11 0 20 8 20 17 0 10 23 13 50 8 29 -6 50 0 50 13 0 12 -31 22 -70 22 -49 0 -70 -9 -70 -30z"/> <path d="M3469 3795 c-7 -19 -8 -58 -1 -85 14 -56 -10 -66 -48 -20 -26 31 -69 21 -49 -12 36 -58 -12 -98 -83 -69 -83 35 -72 -13 14 -56 26 -14 49 -42 50 -64 4 -71 10 -79 29 -34 10 26 29 40 45 34 20 -8 27 5 26 43 -1 30 -14 59 -29 64 -21 7 -22 0 -4 -34 18 -34 17 -42 -8 -42 -37 0 -41 73 -6 106 43 41 104 29 111 -21 4 -25 14 -45 24 -45 36 0 45 -122 11 -158 -18 -20 -26 -51 -19 -69 17 -44 47 -23 34 25 -5 21 0 44 12 51 31 19 72 -30 72 -84 0 -54 38 -62 46 -10 3 20 -13 59 -36 85 -23 27 -38 65 -33 85 6 22 -6 46 -29 61 -44 28 -53 104 -10 88 29 -11 59 58 40 89 -20 33 -48 16 -49 -28 -1 -35 -12 -24 -48 45 -38 72 -50 83 -62 55z"/> <path d="M1025 3761 c-32 -52 -32 -68 2 -55 41 16 81 -17 61 -49 -22 -34 -28 -135 -9 -146 8 -5 13 16 11 48 -3 47 4 56 43 54 26 -2 47 -10 47 -18 0 -8 10 -15 22 -15 16 0 15 9 -2 30 -14 17 -38 30 -54 30 -15 0 -23 8 -17 19 6 10 2 24 -11 32 -16 10 -16 18 2 29 17 10 14 18 -9 27 -19 7 -28 4 -21 -7 7 -11 3 -20 -7 -20 -11 0 -23 18 -27 41 l-6 41 -25 -41z"/> <path d="M1790 3780 c-14 -23 44 -66 69 -51 12 8 21 21 21 30 0 22 -78 41 -90 21z"/> <path d="M1967 3749 c-13 -27 -16 -45 -7 -39 9 5 21 -12 28 -38 9 -38 21 -46 57 -37 l45 11 -40 -48 c-30 -35 -31 -41 -5 -20 21 16 35 18 35 6 0 -12 -9 -27 -20 -34 -12 -7 -15 -21 -9 -31 6 -11 2 -19 -9 -19 -26 0 -65 71 -48 87 7 7 4 13 -8 13 -11 0 -36 -18 -57 -41 -36 -40 -36 -40 0 -26 25 9 33 6 24 -8 -8 -13 11 -27 48 -35 60 -13 61 -15 26 -53 -22 -24 -51 -36 -76 -29 -38 9 -38 8 -6 -16 49 -37 44 -48 -15 -37 -29 6 -50 0 -50 -13 0 -12 9 -22 20 -22 11 0 20 -13 20 -30 0 -16 14 -30 30 -30 17 0 30 14 30 30 0 17 10 30 21 30 12 0 16 9 9 20 -11 18 33 80 56 80 14 0 6 -68 -8 -80 -7 -5 -5 -28 3 -50 15 -38 16 -38 18 5 2 69 3 73 25 100 15 17 14 25 -2 25 -12 0 -22 14 -22 30 0 17 18 30 40 30 22 0 41 11 42 25 1 14 9 3 17 -25 14 -45 17 -46 31 -13 10 23 4 47 -17 68 -29 29 -33 29 -44 -1 -14 -37 -69 -47 -69 -13 0 12 9 16 20 9 26 -16 25 2 -1 51 -16 31 -14 39 10 39 17 0 31 14 31 30 0 17 -10 30 -21 30 -12 0 -15 -11 -7 -23 10 -16 3 -20 -20 -10 -20 7 -48 13 -62 13 -15 0 -25 16 -21 35 12 71 -17 108 -42 54z"/> <path d="M1280 3756 c0 -11 -17 -16 -39 -11 -27 7 -35 2 -27 -17 5 -16 0 -28 -12 -28 -12 0 -22 11 -22 25 -1 17 -7 16 -19 -4 -12 -19 -11 -39 3 -55 25 -31 76 -34 76 -5 0 12 8 17 17 11 10 -6 13 -33 8 -59 -5 -27 2 -55 16 -64 17 -10 20 -7 10 9 -8 14 0 41 18 61 31 35 31 39 -6 65 -35 24 -29 27 67 27 59 -1 113 -7 120 -15 8 -7 28 -8 45 -1 23 8 27 4 15 -15 -11 -17 -8 -21 7 -12 13 8 23 5 23 -7 0 -31 -58 -26 -92 9 -24 23 -38 24 -69 5 -38 -24 -38 -25 1 -39 22 -8 40 -20 40 -27 0 -6 -8 -6 -18 0 -11 6 -33 -3 -50 -20 -18 -17 -41 -26 -52 -19 -11 7 -15 -1 -8 -17 7 -18 -3 -33 -26 -39 -28 -7 -26 -10 10 -12 26 -1 41 -11 34 -22 -19 -31 22 -24 49 8 18 23 16 31 -13 38 -28 7 -25 10 10 12 30 1 41 10 32 25 -9 15 -5 18 10 8 14 -8 42 0 63 20 22 20 45 30 52 23 15 -15 -42 -74 -72 -74 -11 0 -21 -9 -21 -19 0 -11 15 -14 33 -7 25 9 30 5 19 -16 -8 -15 4 -3 28 27 24 30 51 51 59 45 9 -5 21 8 27 30 6 22 1 40 -11 40 -12 0 -16 5 -10 12 23 23 95 -15 95 -51 0 -39 59 -73 78 -46 7 9 35 27 62 40 46 21 47 23 6 18 -25 -3 -51 -12 -59 -19 -31 -31 -70 -14 -57 26 9 29 4 40 -20 40 -19 0 -49 16 -67 36 -18 20 -24 23 -14 8 15 -22 11 -27 -20 -20 -21 5 -37 18 -35 29 2 12 -20 32 -50 45 -50 21 -51 21 -15 -8 44 -34 18 -39 -58 -10 -37 14 -51 13 -51 -5 -1 -17 -5 -18 -15 -3 -20 30 -105 49 -105 24z"/> <path d="M3669 3726 c3 -31 7 -75 9 -97 1 -23 20 -61 42 -84 22 -24 40 -53 40 -64 0 -11 16 -57 35 -101 44 -103 123 -116 121 -20 -2 49 -11 60 -48 60 -26 0 -56 18 -68 40 -12 22 -16 40 -10 40 6 0 -7 20 -29 44 -23 24 -41 58 -41 76 0 17 -11 43 -24 56 -19 19 -14 24 21 24 60 0 50 67 -11 76 -37 6 -43 -2 -37 -50z"/> <path d="M3098 3745 c-7 -47 9 -119 34 -147 15 -17 28 -42 28 -55 0 -12 14 -23 31 -23 31 0 31 88 0 139 -8 12 2 21 23 21 30 1 28 7 -14 40 -51 40 -98 52 -102 25z"/> <path d="M1889 3718 c-7 -12 -30 -17 -51 -12 -21 6 -38 1 -38 -10 0 -12 -22 -15 -55 -7 l-55 13 45 -32 c54 -38 185 -9 185 42 0 33 -13 36 -31 6z"/> <path d="M5073 3727 c-23 -24 -14 -47 18 -47 28 0 28 -4 -1 -33 -28 -28 -36 -29 -51 -6 -9 15 -23 22 -30 14 -8 -7 1 -28 18 -45 45 -44 124 24 104 88 -14 43 -34 53 -58 29z"/> <path d="M3827 3675 c7 -25 13 -57 13 -71 0 -18 14 -16 48 10 49 37 49 77 0 58 -16 -6 -28 2 -28 19 0 16 -10 29 -22 29 -14 0 -18 -18 -11 -45z"/> <path d="M4221 3665 c0 -41 48 -110 64 -93 11 11 -41 128 -56 128 -5 0 -9 -16 -8 -35z"/> <path d="M1899 3610 c-74 -75 -171 -143 -193 -136 -16 6 -21 -8 -15 -42 8 -42 3 -49 -26 -40 -28 10 -30 8 -6 -9 34 -24 67 -10 55 24 -4 13 33 52 82 88 99 71 175 145 149 145 -9 0 -29 -13 -46 -30z"/> <path d="M5322 3562 c-24 -16 -24 -23 3 -50 44 -44 55 -40 55 18 0 53 -13 60 -58 32z"/> <path d="M1620 3540 c-44 -14 -24 -29 30 -22 11 1 4 -10 -15 -25 -19 -15 -29 -33 -21 -40 20 -20 50 -15 36 6 -6 11 11 26 39 33 28 7 51 20 51 28 0 9 -19 11 -43 5 -30 -8 -39 -4 -29 12 8 13 12 22 8 21 -3 -1 -28 -9 -56 -18z"/> <path d="M3053 3510 c6 -17 25 -29 41 -26 46 10 40 45 -9 52 -34 5 -42 -1 -32 -26z"/> <path d="M2946 3473 c8 -20 14 -46 14 -59 0 -15 7 -15 24 2 13 13 42 24 64 24 39 0 39 1 4 35 -28 26 -39 29 -46 9 -8 -21 -16 -21 -42 0 -27 22 -30 21 -18 -11z"/> <path d="M3695 3475 c-5 -14 -4 -42 1 -62 11 -43 43 -6 44 52 0 40 -32 47 -45 10z"/> <path d="M1286 3413 c3 -37 74 -91 74 -55 0 10 -11 24 -25 30 -14 7 2 7 35 0 33 -6 53 -5 45 3 -8 8 1 27 20 41 30 21 22 25 -58 22 -77 -3 -93 -10 -91 -41z"/> <path d="M1557 3428 c-10 -117 -5 -151 27 -192 l35 -46 -10 50 c-6 28 -15 86 -22 130 -13 91 -26 115 -30 58z"/> <path d="M3379 3347 c-27 -19 -52 -36 -56 -39 -4 -3 -1 -16 7 -28 10 -16 29 -9 62 22 26 25 54 39 61 31 8 -7 -3 -28 -24 -45 -33 -27 -34 -30 -4 -20 21 6 52 -7 78 -34 23 -24 38 -35 33 -24 -6 11 -26 54 -46 95 -39 86 -43 87 -111 42z"/> <path d="M3585 3297 c-30 -30 -33 -97 -4 -97 26 0 45 47 36 90 -6 26 -12 27 -32 7z"/> <path d="M5266 3294 c-5 -9 -5 -22 2 -29 7 -6 12 -1 12 13 0 13 9 19 20 12 12 -7 15 -21 9 -31 -6 -11 4 -19 23 -19 19 0 29 6 22 13 -8 7 -4 24 7 38 15 19 8 24 -32 22 -29 -2 -57 -10 -63 -19z"/> <path d="M3124 3219 c8 -88 54 -103 49 -17 -2 36 -15 69 -29 74 -20 6 -25 -10 -20 -57z"/> <path d="M3845 3254 c3 -9 14 -16 25 -14 24 4 49 -64 33 -90 -7 -11 -14 -33 -16 -50 -3 -16 -24 -43 -47 -58 -50 -34 -100 -145 -100 -223 0 -31 -14 -70 -31 -87 -17 -18 -33 -49 -34 -70 -3 -35 -7 -36 -44 -10 -58 41 -136 37 -127 -7 5 -23 22 -33 51 -29 30 4 45 -4 45 -25 0 -17 8 -31 17 -31 10 0 15 -21 12 -46 -5 -51 90 -68 106 -19 5 15 -3 21 -21 14 -59 -23 -55 74 7 159 32 44 59 98 59 121 1 59 39 115 41 61 2 -22 16 16 32 85 19 78 40 125 57 125 15 0 33 9 40 20 7 11 -1 15 -18 8 -28 -11 -27 -5 0 50 42 85 30 128 -37 131 -31 1 -53 -5 -50 -15z"/> <path d="M1690 3220 c-7 -11 -2 -20 10 -20 12 0 35 -31 51 -70 32 -75 58 -89 76 -40 7 18 0 30 -18 30 -17 0 -38 22 -48 48 -22 57 -53 81 -71 52z"/> <path d="M2871 3201 c-6 -10 -3 -24 8 -30 10 -7 14 -28 8 -47 -8 -24 -6 -27 8 -8 10 14 32 20 49 14 18 -7 36 1 42 18 8 19 3 26 -14 20 -15 -6 -32 4 -39 21 -13 35 -45 41 -62 12z"/> <path d="M3720 3170 c-13 -16 -18 -45 -11 -65 12 -31 17 -29 42 15 45 80 23 115 -31 50z"/> <path d="M3620 3158 c0 -14 -15 -41 -33 -62 -38 -41 -22 -74 19 -39 30 25 74 -5 74 -51 0 -14 9 -26 20 -26 29 0 24 53 -8 85 -16 16 -27 45 -25 65 2 20 -8 40 -22 45 -14 4 -25 -3 -25 -17z"/> <path d="M4072 3148 c-7 -19 -4 -44 7 -55 30 -30 26 -53 -9 -53 -31 0 -40 -24 -17 -46 18 -18 66 48 66 90 1 24 11 31 34 22 22 -8 30 -4 23 16 -5 15 -22 28 -38 28 -15 0 -33 8 -40 17 -7 9 -18 1 -26 -19z"/> <path d="M3266 3123 c-11 -7 -27 -35 -34 -63 -12 -42 -10 -44 8 -15 12 19 40 35 61 35 21 0 39 8 39 18 0 24 -49 41 -74 25z"/> <path d="M1894 3065 c-5 -8 -14 -42 -20 -75 -7 -33 -8 -49 -2 -35 6 14 20 25 31 25 11 0 14 -9 7 -20 -7 -11 -4 -20 5 -20 36 0 43 25 15 53 -16 15 -23 41 -17 58 12 30 -4 41 -19 14z"/> <path d="M1700 3015 c0 -15 28 -26 70 -26 55 -2 65 3 47 25 -28 33 -117 34 -117 1z"/> <path d="M2965 3026 c-14 -5 -25 -26 -25 -46 0 -41 102 -45 115 -4 9 26 -56 62 -90 50z"/> <path d="M5203 2993 c-13 -15 -18 -32 -12 -38 19 -18 86 7 97 37 14 37 -55 38 -85 1z"/> <path d="M3561 2983 c-1 -16 -14 -22 -30 -16 -22 8 -25 1 -13 -32 9 -24 25 -46 36 -50 31 -10 49 53 27 92 -14 23 -20 25 -20 6z"/> <path d="M4160 2950 c-26 -27 -64 -50 -85 -50 -47 0 -36 -47 14 -57 22 -4 31 2 22 15 -8 13 2 22 25 22 49 0 107 63 87 96 -11 18 -28 11 -63 -26z"/> <path d="M4369 2935 c8 -25 14 -62 14 -83 -1 -35 2 -34 29 5 17 24 40 38 52 31 12 -8 17 -2 11 14 -5 15 -24 27 -42 25 -18 -1 -33 10 -33 25 0 16 -10 28 -22 28 -14 0 -17 -17 -9 -45z"/> <path d="M1775 2924 c-30 -4 -55 -15 -55 -25 0 -26 95 -24 111 2 17 28 10 31 -56 23z"/> <path d="M3175 2851 c-64 -77 -68 -97 -20 -87 37 7 88 -35 125 -104 13 -24 28 -38 34 -32 14 13 -49 113 -91 144 -38 28 -16 92 26 75 33 -12 91 24 91 58 0 12 -12 10 -28 -4 -20 -16 -33 -16 -41 -2 -20 32 -36 24 -96 -48z"/> <path d="M3380 2871 c0 -15 108 -111 125 -111 8 0 15 19 15 42 0 28 -9 39 -29 31 -15 -6 -39 2 -52 18 -23 28 -59 40 -59 20z"/> <path d="M341 2831 c-36 -43 10 -57 74 -23 30 17 51 31 45 33 -71 16 -100 14 -119 -10z"/> <path d="M4140 2791 c0 -36 129 -45 150 -11 8 13 -10 19 -44 17 -31 -3 -68 2 -82 10 -15 10 -24 4 -24 -16z"/> <path d="M1320 2741 c30 -107 83 -148 65 -51 -5 28 -18 50 -27 50 -10 0 -18 14 -18 30 0 17 -8 30 -19 30 -11 0 -11 -24 -1 -59z"/> <path d="M2080 2771 c0 -16 9 -34 21 -42 14 -8 14 -21 -2 -41 -17 -20 -17 -28 -2 -28 27 0 52 89 34 119 -19 31 -51 26 -51 -8z"/> <path d="M1660 2753 c0 -15 -23 -50 -51 -79 -33 -33 -43 -55 -29 -64 13 -8 18 -28 11 -44 -8 -22 -2 -27 21 -18 23 9 29 4 21 -18 -7 -16 -4 -30 5 -30 10 0 23 14 29 30 7 17 3 30 -8 30 -10 0 -19 10 -19 22 0 12 14 17 31 10 23 -9 29 -2 21 23 -15 47 17 94 51 76 15 -8 11 -1 -8 15 -19 16 -35 39 -35 51 0 13 -9 23 -20 23 -11 0 -20 -12 -20 -27z"/> <path d="M5260 2758 c0 -8 9 -21 21 -29 14 -8 12 -23 -5 -45 -21 -26 -21 -29 0 -16 17 10 36 3 52 -19 23 -31 25 -26 24 37 -2 63 -92 135 -92 72z"/> <path d="M2985 2696 c13 -39 67 -63 107 -48 33 13 29 19 -29 43 -82 35 -88 35 -78 5z"/> <path d="M3384 2689 c-51 -36 -58 -69 -13 -69 55 0 108 39 96 70 -14 38 -27 38 -83 -1z"/> <path d="M3829 2658 c-6 -10 12 -18 40 -18 28 0 51 -9 51 -20 0 -11 14 -20 30 -20 55 0 31 33 -40 55 -41 12 -75 14 -81 3z"/> <path d="M1347 2545 c4 -19 14 -53 22 -75 8 -22 18 -52 23 -66 4 -15 16 -21 26 -15 10 6 23 0 29 -14 6 -14 5 7 -1 45 -12 78 -57 160 -86 160 -11 0 -17 -16 -13 -35z"/> <path d="M3402 2541 c-18 -11 -16 -21 7 -40 21 -18 31 -19 31 -3 0 12 14 22 31 22 17 0 26 -9 19 -20 -7 -11 -2 -20 10 -20 36 0 12 45 -33 61 -22 9 -51 9 -65 0z"/> <path d="M4021 2536 c-1 -23 -12 -31 -31 -23 -23 8 -30 -4 -30 -51 0 -36 -10 -62 -25 -62 -17 -1 -15 -7 5 -20 46 -30 55 -24 49 30 -3 31 5 50 22 50 40 0 54 35 31 75 -19 33 -21 33 -21 1z"/> <path d="M1969 2491 c-18 -27 -26 -59 -19 -71 7 -12 3 -35 -11 -51 -19 -23 -18 -29 9 -29 21 0 32 17 32 49 0 36 8 47 30 38 34 -13 41 24 9 44 -12 7 -17 26 -11 41 17 44 -4 33 -39 -21z"/> <path d="M2868 2496 c-6 -9 4 -16 21 -16 37 0 41 -32 6 -47 -15 -6 -11 -10 10 -11 19 -1 35 12 35 28 0 17 18 30 40 30 22 0 40 7 40 16 0 9 -32 16 -71 16 -40 0 -76 -7 -81 -16z"/> <path d="M5336 2463 c-14 -20 -44 -46 -66 -59 -35 -20 -30 -23 35 -19 67 5 75 11 75 60 0 65 -8 68 -44 18z"/> <path d="M1145 2455 c4 -14 29 -35 53 -48 25 -12 38 -27 29 -31 -9 -5 -6 -7 8 -3 45 11 83 -15 70 -48 -8 -23 -4 -27 15 -15 20 13 23 7 12 -22 -8 -21 -17 -45 -18 -54 -2 -9 42 -36 98 -60 56 -24 115 -55 131 -68 19 -16 38 -17 58 -5 24 16 21 26 -21 58 -28 22 -54 30 -61 19 -7 -11 -46 -4 -95 18 -46 21 -78 43 -72 50 30 30 -18 111 -100 170 -96 69 -120 78 -107 39z"/> <path d="M3251 2461 c-9 -14 -3 -38 14 -55 39 -39 62 -3 27 44 -19 27 -30 30 -41 11z"/> <path d="M3829 2459 c-7 -12 -26 -17 -41 -11 -22 8 -21 0 4 -38 38 -59 63 -51 63 20 0 55 -6 61 -26 29z"/> <path d="M3465 2392 c-71 -66 -73 -70 -40 -107 19 -21 28 -45 20 -54 -8 -9 -2 -12 14 -8 18 6 29 38 30 86 1 50 12 81 31 87 26 9 26 6 2 -23 -15 -19 -23 -38 -18 -43 5 -6 21 13 36 40 15 28 35 50 45 50 9 0 12 9 5 20 -21 33 -47 23 -125 -48z"/> <path d="M3041 2369 c-51 -51 -60 -69 -35 -69 19 0 34 9 34 19 0 10 24 31 54 45 30 14 54 35 52 46 -6 39 -38 27 -105 -41z"/> <path d="M4980 2326 c0 -10 11 -29 24 -42 38 -38 -63 -31 -105 7 -33 30 -84 -93 -51 -125 16 -17 72 47 56 64 -8 9 16 10 54 3 37 -7 75 -13 85 -13 9 0 17 -18 17 -40 0 -44 29 -53 52 -16 8 13 5 27 -7 31 -13 4 -18 21 -12 36 6 16 0 29 -13 29 -13 0 -19 13 -13 30 7 17 4 30 -6 30 -10 0 -32 5 -49 12 -18 7 -32 4 -32 -6z"/> <path d="M3140 2290 c-20 -24 -19 -30 6 -30 18 0 38 10 45 22 9 14 46 17 104 8 62 -9 85 -6 76 8 -21 34 -202 27 -231 -8z"/> <path d="M1568 2230 c2 -16 21 -42 41 -57 21 -15 32 -40 26 -57 -15 -39 14 -85 43 -67 12 7 17 24 9 36 -9 14 -2 17 20 9 43 -17 42 8 -2 51 -19 18 -52 52 -73 74 -46 48 -70 53 -64 11z"/> <path d="M3340 2143 c0 -62 -8 -83 -31 -83 -17 0 -26 -9 -19 -20 31 -51 115 -22 101 35 -7 30 -15 71 -18 90 -11 72 -33 58 -33 -22z"/> <path d="M1750 2083 c-5 -14 -10 -34 -10 -42 0 -26 128 -38 157 -15 19 16 37 15 65 -2 31 -20 38 -19 38 3 0 30 -59 87 -78 76 -61 -35 -81 -41 -91 -25 -6 10 0 23 14 28 14 5 0 8 -30 6 -30 -1 -59 -14 -65 -29z"/> <path d="M2224 2085 c3 -17 20 -35 36 -40 27 -7 27 -6 0 13 -26 19 -25 21 4 22 19 0 44 -17 55 -39 28 -51 26 -67 -4 -47 -43 27 -116 22 -93 -7 12 -13 33 -20 47 -14 15 5 33 -1 41 -14 12 -18 19 -17 30 1 11 18 28 16 68 -10 46 -31 51 -31 40 -3 -6 17 -28 37 -48 43 -20 6 -50 33 -67 58 -37 57 -118 85 -109 37z"/> <path d="M5123 2053 c-15 -17 3 -21 69 -16 48 4 88 13 88 20 0 24 -137 20 -157 -4z"/> <path d="M4974 2031 c-17 -17 -40 -31 -50 -31 -11 0 -25 -13 -31 -30 -14 -36 10 -39 43 -6 19 19 24 19 24 0 0 -13 10 -24 22 -24 17 0 16 8 -1 28 -18 23 -16 33 13 49 19 11 30 26 23 32 -7 7 -26 -1 -43 -18z"/> <path d="M2040 1887 c169 -75 193 -84 248 -97 118 -25 15 45 -127 88 -160 49 -222 53 -121 9z"/> <path d="M4680 1714 c0 -16 -27 -39 -60 -51 -33 -12 -60 -33 -60 -47 0 -14 -6 -46 -12 -70 -14 -52 59 -50 99 2 49 64 128 61 142 -5 15 -67 54 -108 95 -100 35 7 150 -55 161 -88 5 -14 16 -19 24 -11 9 7 -8 37 -37 66 -29 28 -52 63 -52 76 0 15 -8 12 -20 -6 -16 -25 -19 -22 -20 13 0 23 -14 54 -31 68 -28 23 -30 19 -18 -28 8 -33 5 -53 -9 -53 -12 0 -22 11 -22 23 0 13 -15 41 -34 62 -24 26 -26 36 -8 31 15 -3 32 7 37 22 7 19 0 25 -19 17 -16 -6 -60 -4 -98 5 -37 9 -52 17 -33 18 43 2 45 29 5 62 -24 20 -30 19 -30 -6z"/> <path d="M3703 1620 c1 -83 33 -168 34 -90 0 33 -8 78 -17 100 -16 36 -17 35 -17 -10z"/> <path d="M4701 1441 c-23 -43 -157 -40 -185 5 -11 17 -15 18 -16 1 0 -13 -5 -38 -12 -55 -9 -23 0 -32 33 -32 44 0 44 0 -7 -40 -55 -44 -53 -77 20 -275 18 -47 27 -91 20 -97 -24 -25 -53 17 -84 125 -18 61 -36 108 -40 103 -5 -4 4 -51 20 -103 26 -86 26 -101 -3 -145 -37 -55 -38 -53 42 -79 52 -17 169 -151 170 -196 1 -9 -35 12 -79 47 -44 35 -80 57 -80 50 0 -8 23 -32 50 -54 62 -49 110 -137 110 -204 0 -75 31 -79 106 -13 38 33 75 54 82 46 8 -8 8 4 0 26 -8 21 -27 46 -41 55 -15 9 -27 28 -27 44 0 15 -15 30 -34 34 -31 6 -30 9 2 41 19 20 45 29 57 22 14 -9 17 -1 9 20 -11 28 -7 30 25 13 46 -24 62 -25 59 -5 -2 8 -1 22 2 30 14 44 6 69 -38 110 -26 25 -40 45 -30 46 10 0 2 9 -17 21 -20 11 -56 15 -80 8 -33 -9 -37 -7 -17 7 15 10 22 33 16 51 -8 21 -2 32 18 32 17 0 24 10 17 22 -7 12 -30 17 -50 12 -31 -8 -34 -2 -18 38 18 49 -3 76 -61 77 -16 1 -33 18 -37 38 -4 24 1 33 16 24 16 -10 18 2 9 41 -13 49 -11 52 17 27 17 -16 27 -35 23 -43 -21 -33 41 -38 65 -5 23 32 34 28 31 -12 -1 -6 16 -12 37 -14 22 -1 39 6 39 16 0 10 13 13 28 7 15 -6 34 -1 42 12 8 13 3 20 -13 16 -15 -3 -55 14 -89 39 -35 24 -68 40 -75 35 -8 -6 -4 1 7 14 25 30 26 56 1 56 -11 0 -29 -17 -40 -39z"/> <path d="M5235 1365 c-19 -4 -35 -16 -35 -26 0 -10 14 -13 30 -6 21 8 30 -2 30 -31 0 -23 8 -42 19 -42 17 0 17 93 -1 106 -4 4 -24 3 -43 -1z"/> <path d="M4823 1206 c-24 -25 -23 -34 3 -60 27 -28 32 -27 52 10 29 54 -15 94 -55 50z"/> <path d="M5324 980 c-1 -46 4 -54 23 -36 34 31 37 96 5 96 -15 0 -27 -25 -28 -60z"/> <path d="M5080 880 c0 -22 -9 -40 -20 -40 -11 0 -19 -16 -18 -35 1 -21 5 -25 11 -10 6 14 20 25 31 25 11 0 15 -14 8 -32 -8 -20 -3 -28 13 -23 14 5 24 19 23 32 -1 13 -3 46 -5 73 -4 59 -43 68 -43 10z"/> <path d="M4303 690 c1 -113 2 -115 19 -46 10 44 10 94 -1 120 -14 35 -18 18 -18 -74z"/> <path d="M4400 739 c0 -72 57 -155 150 -219 95 -66 109 -56 59 42 -73 142 -209 257 -209 177z"/> <path d="M640 443 c0 -291 42 -571 56 -379 3 36 12 69 20 75 8 6 16 108 19 226 l6 215 -51 0 c-49 0 -50 -4 -50 -137z"/> <path d="M4140 481 c0 -43 9 -84 20 -91 11 -7 20 -2 20 10 0 12 9 17 20 10 33 -20 23 84 -11 119 -45 44 -49 40 -49 -48z"/> <path d="M4300 480 c-3 -49 -7 -103 -8 -120 -1 -16 -9 -41 -17 -53 -10 -15 -2 -28 20 -33 30 -9 29 -12 -8 -24 -27 -9 -46 -34 -51 -71 -11 -71 15 -125 35 -73 7 19 27 34 43 34 42 0 183 144 151 155 -14 5 -25 41 -25 83 0 138 -89 125 -103 -15 -2 -18 -10 21 -17 87 -13 119 -13 120 -20 30z"/> <path d="M4620 295 c0 -26 -11 -58 -24 -71 -35 -35 10 -29 55 7 22 18 26 25 11 17 -21 -11 -26 -4 -17 29 6 24 3 48 -7 54 -10 6 -18 -10 -18 -36z"/> <path d="M338 255 c-1 -14 -3 -44 -6 -67 -3 -23 2 -59 10 -80 10 -25 16 -2 17 67 1 89 -16 154 -21 80z"/> <path d="M5120 180 c0 -8 14 -26 30 -40 17 -14 30 -53 30 -87 1 -48 5 -56 20 -33 13 20 19 22 20 5 0 -14 16 -25 35 -25 22 0 27 6 13 15 -27 18 -57 103 -51 145 2 19 -14 31 -47 33 -27 1 -50 -4 -50 -13z"/> <path d="M5350 184 c-52 -36 -85 -114 -59 -138 20 -19 28 -13 39 30 7 29 23 59 34 66 11 8 18 23 13 35 -4 12 -16 15 -27 7z"/> <path d="M4985 115 c13 -38 75 -43 75 -6 0 18 -17 31 -42 31 -24 0 -38 -10 -33 -25z"/> </g> </svg> 