<?xml version="1.0" standalone="no"?>
<!DOCTYPE svg PUBLIC "-//W3C//DTD SVG 20010904//EN"
 "http://www.w3.org/TR/2001/REC-SVG-20010904/DTD/svg10.dtd">
<svg version="1.0" xmlns="http://www.w3.org/2000/svg"
 width="600.000000pt" height="598.000000pt" viewBox="0 0 600.000000 598.000000"
 preserveAspectRatio="xMidYMid meet"> <rect
  x="0"
  y="0"
  width="600"
  height="598"
  rx="32"
  ry="32"
  fill="#ffffff"
/>
<g transform="translate(0.000000,598.000000) scale(0.100000,-0.100000)"
fill="#000000" stroke="none">
<path d="M2420 5870 c0 -5 -15 -10 -34 -10 -42 0 -68 -9 -60 -21 3 -5 -10 -9
-29 -9 -22 0 -37 -6 -41 -15 -3 -8 -15 -15 -26 -15 -11 0 -20 -4 -20 -10 0 -5
-7 -10 -15 -10 -9 0 -18 -7 -21 -15 -4 -8 -15 -15 -25 -15 -11 0 -22 -7 -25
-15 -4 -8 -10 -15 -15 -15 -10 0 -107 -97 -127 -126 -7 -10 -15 -27 -18 -36
-3 -9 -13 -19 -21 -22 -9 -4 -12 -13 -8 -26 4 -13 1 -22 -9 -26 -10 -4 -16
-18 -16 -36 0 -17 -7 -36 -15 -42 -10 -8 -15 -34 -16 -88 -1 -43 -6 -78 -10
-78 -5 0 -9 -7 -9 -15 0 -8 5 -15 11 -15 5 0 9 -8 8 -17 -1 -10 -1 -46 0 -80
1 -49 4 -63 16 -63 10 0 15 -11 15 -35 0 -19 4 -35 9 -35 5 0 12 -11 15 -25 4
-14 11 -25 16 -25 6 0 10 -9 10 -20 0 -11 7 -20 15 -20 8 0 15 -9 15 -20 0
-11 7 -23 15 -26 8 -4 15 -10 15 -15 0 -15 33 -48 42 -43 4 3 8 0 8 -5 0 -16
38 -51 54 -51 8 0 16 -7 20 -15 3 -8 12 -15 21 -15 8 0 15 -4 15 -10 0 -5 9
-10 19 -10 10 0 22 -7 25 -16 4 -11 14 -15 30 -12 18 4 26 0 29 -14 4 -12 14
-18 35 -18 17 0 32 -5 34 -12 3 -7 25 -11 62 -9 35 1 64 -3 73 -10 19 -17 53
-22 67 -11 6 5 24 12 40 16 32 8 116 86 116 109 0 8 7 20 15 27 22 18 21 110
-1 110 -11 0 -15 6 -11 19 3 14 -6 29 -29 50 -18 17 -38 31 -44 31 -5 0 -9 6
-7 13 1 7 -11 13 -31 15 -18 2 -30 7 -27 12 7 12 -32 19 -98 17 -40 -1 -57 2
-57 11 0 11 -19 16 -48 13 -7 -1 -11 2 -10 7 2 5 -9 21 -23 34 -15 14 -30 35
-34 46 -3 12 -11 22 -16 22 -5 0 -9 42 -9 94 0 71 4 98 15 110 8 8 15 22 15
31 0 9 5 13 10 10 6 -3 10 1 10 9 0 9 7 16 15 16 8 0 15 7 15 15 0 8 9 15 20
15 11 0 23 7 27 15 8 22 239 21 247 -1 3 -8 10 -14 15 -14 14 0 71 -57 71 -70
0 -5 7 -10 15 -10 12 0 15 -17 16 -85 1 -47 3 -89 4 -95 1 -5 3 -24 4 -41 0
-16 4 -28 9 -26 4 3 8 -299 9 -670 1 -599 3 -679 18 -709 9 -19 20 -34 25 -34
5 0 18 -9 29 -21 13 -14 26 -19 40 -14 15 5 21 2 21 -9 0 -23 125 -23 134 -1
3 8 11 12 18 10 7 -3 35 15 61 40 l48 44 2 831 c2 658 -1 830 -10 830 -7 0
-13 11 -13 25 0 14 -7 28 -15 31 -8 4 -15 17 -15 30 0 13 -4 24 -10 24 -5 0
-12 11 -16 25 -3 14 -10 25 -15 25 -5 0 -9 7 -9 15 0 8 -7 15 -15 15 -8 0 -15
9 -15 20 0 11 -7 23 -15 26 -8 4 -15 10 -15 15 0 13 -37 48 -44 41 -3 -3 -6 2
-6 11 0 9 -7 17 -15 17 -9 0 -18 7 -21 15 -4 8 -15 15 -25 15 -10 0 -19 7 -19
15 0 8 -9 15 -20 15 -11 0 -20 5 -20 10 0 6 -9 10 -20 10 -11 0 -23 7 -26 15
-4 9 -19 15 -40 15 -24 0 -34 5 -34 15 0 12 -16 15 -85 15 -50 0 -85 4 -85 10
0 6 -32 10 -75 10 -43 0 -75 -4 -75 -10z m262 -44 c15 1 25 -3 22 -7 -2 -4 11
-11 31 -15 19 -3 38 -10 41 -15 3 -5 14 -9 25 -9 10 0 19 -4 19 -9 0 -5 12
-12 26 -15 14 -4 46 -26 71 -49 25 -23 50 -40 57 -39 6 2 8 0 4 -3 -4 -4 11
-26 33 -49 21 -22 63 -87 91 -143 29 -56 55 -100 58 -98 3 2 4 -362 2 -808 -2
-809 -2 -811 -23 -833 -26 -28 -119 -75 -139 -71 -76 16 -127 39 -143 66 -9
16 -17 38 -17 48 0 11 -2 22 -5 24 -2 3 -8 331 -11 730 -4 398 -11 734 -15
747 -5 13 -9 34 -9 47 0 13 -7 30 -15 39 -8 8 -15 19 -15 24 0 15 -68 72 -85
72 -8 0 -15 4 -15 9 0 9 -62 27 -129 38 -56 9 -164 -30 -211 -78 -72 -73 -75
-79 -79 -172 -3 -97 5 -161 20 -152 5 4 9 -2 9 -12 0 -21 82 -103 103 -103 7
0 18 -5 23 -10 6 -6 36 -12 68 -14 31 -2 63 -10 71 -16 8 -6 18 -9 24 -6 5 3
31 -11 58 -32 59 -47 92 -111 75 -145 -6 -12 -13 -32 -17 -43 -7 -28 -43 -68
-75 -85 -16 -8 -59 -12 -123 -11 -83 1 -108 6 -177 33 -44 18 -80 36 -80 40 0
5 -6 9 -13 9 -7 0 -35 20 -63 44 -27 24 -52 42 -56 40 -4 -2 -9 5 -13 15 -3
11 -15 23 -26 26 -10 4 -17 10 -14 14 2 5 -7 19 -21 32 -14 13 -42 58 -61 99
-19 41 -39 83 -45 94 -13 24 -13 282 0 299 5 6 13 28 17 47 14 72 155 270 192
270 6 0 30 16 53 35 23 19 46 35 52 35 5 0 7 4 4 8 -2 4 7 9 22 10 14 1 31 7
36 12 6 6 18 10 27 10 9 0 22 7 29 15 14 17 98 23 220 16 47 -3 97 -5 112 -5z
m-129 -343 c-13 -2 -35 -2 -50 0 -16 2 -5 4 22 4 28 0 40 -2 28 -4z"/>
<path d="M2352 5700 c-35 -17 -65 -30 -68 -30 -5 0 -20 -12 -49 -37 -7 -7 -16
-13 -20 -13 -4 0 -28 -21 -55 -46 -33 -31 -47 -51 -43 -62 4 -10 3 -14 -2 -10
-13 12 -42 -33 -74 -114 -26 -66 -29 -85 -28 -171 1 -54 7 -101 12 -105 6 -4
12 -18 14 -32 4 -33 33 -87 68 -129 46 -57 83 -96 83 -89 0 3 17 -10 38 -29
90 -83 283 -136 332 -91 20 19 25 43 14 72 -6 17 -119 56 -160 56 -92 0 -246
137 -269 240 -16 72 -5 280 15 280 4 0 11 10 14 23 14 54 113 133 211 170 55
21 88 27 152 27 45 0 85 -4 88 -10 3 -5 16 -10 28 -10 23 -1 116 -51 158 -85
14 -11 35 -36 49 -55 13 -19 27 -37 30 -40 26 -21 31 -124 34 -740 3 -355 5
-680 5 -723 1 -49 5 -76 11 -72 6 4 10 -7 10 -27 0 -44 12 -60 45 -60 32 0 47
18 42 49 -2 12 -1 21 2 19 3 -2 5 334 3 746 l-2 750 -33 67 c-18 36 -44 79
-57 95 -78 93 -192 181 -239 184 -13 0 -28 7 -32 14 -5 7 -9 9 -9 4 0 -6 -5
-5 -12 2 -8 8 -51 12 -127 12 -107 -1 -121 -3 -179 -30z m305 -13 c-1 -7 13
-13 31 -15 17 -2 32 -7 32 -13 0 -5 11 -9 25 -9 16 0 25 -6 25 -15 0 -9 9 -15
25 -15 16 0 25 -6 25 -15 0 -8 5 -15 10 -15 12 0 100 -88 100 -99 0 -5 7 -14
15 -21 8 -7 15 -21 15 -32 0 -10 5 -16 10 -13 6 3 10 -5 10 -19 0 -14 7 -29
15 -33 13 -8 15 -110 17 -786 3 -734 2 -777 -14 -777 -16 0 -18 11 -19 93 -1
131 -9 231 -19 237 -5 3 -5 20 -2 38 4 18 4 79 1 135 -4 56 -7 316 -8 576 -1
302 -5 479 -11 485 -5 5 -10 18 -10 28 0 10 -7 21 -15 24 -8 4 -15 17 -15 30
0 15 -6 24 -15 24 -8 0 -15 4 -15 10 0 15 -58 70 -75 70 -8 0 -15 4 -15 10 0
15 -81 48 -107 44 -15 -3 -22 0 -21 8 4 19 -242 24 -253 6 -8 -13 -14 -15 -57
-17 -13 0 -20 -5 -17 -11 3 -5 -3 -10 -15 -10 -11 0 -23 -7 -26 -15 -4 -8 -12
-15 -20 -15 -15 0 -84 -65 -84 -80 0 -5 -7 -13 -15 -18 -9 -4 -17 -18 -18 -30
0 -12 -7 -24 -14 -26 -7 -3 -13 -21 -13 -41 0 -19 -4 -35 -10 -35 -6 0 -10
-41 -10 -104 0 -82 3 -105 15 -109 8 -4 12 -15 10 -27 -5 -26 4 -52 16 -44 5
3 9 -4 9 -15 0 -12 8 -29 18 -39 9 -11 26 -31 36 -45 10 -15 22 -27 27 -27 4
0 20 -11 35 -25 15 -14 38 -25 50 -25 15 0 24 -6 24 -15 0 -11 12 -15 44 -15
27 0 46 -5 49 -12 2 -9 25 -13 65 -13 l62 1 0 -33 0 -33 -59 0 c-43 0 -60 4
-65 15 -3 9 -19 15 -41 15 -24 0 -35 4 -35 15 0 8 -9 15 -19 15 -22 0 -81 31
-81 43 0 4 -5 7 -10 7 -6 0 -21 11 -34 25 -13 14 -28 25 -35 25 -6 0 -11 7
-11 15 0 8 -7 15 -15 15 -8 0 -15 7 -15 15 0 8 -4 15 -9 15 -5 0 -12 11 -15
25 -4 14 -11 23 -16 20 -6 -3 -10 5 -10 19 0 14 -4 26 -10 26 -5 0 -13 18 -16
40 -4 22 -10 40 -15 40 -5 0 -9 41 -9 90 0 53 4 90 10 90 6 0 10 18 10 40 0
29 4 40 15 40 10 0 15 10 15 31 0 18 4 28 10 24 6 -3 13 2 17 12 8 21 103 123
114 123 4 0 23 14 41 30 18 17 39 28 46 25 7 -2 16 3 20 13 4 10 18 17 32 17
14 0 24 5 23 11 -2 9 36 12 132 12 97 0 134 -3 132 -11z"/>
<path d="M3555 4941 c-24 -4 -39 -11 -37 -19 1 -9 -6 -10 -23 -6 -18 4 -27 2
-31 -10 -3 -9 -13 -16 -20 -16 -8 0 -33 -18 -55 -40 -22 -22 -45 -40 -50 -40
-5 0 -9 -7 -9 -15 0 -8 -4 -15 -9 -15 -5 0 -12 -11 -15 -25 -4 -14 -11 -25
-16 -25 -6 0 -10 -10 -10 -23 0 -13 -7 -32 -15 -43 -12 -16 -14 -90 -15 -476
0 -311 3 -458 10 -458 6 0 28 -17 48 -38 21 -21 43 -37 49 -35 6 2 18 -3 27
-12 18 -19 132 -18 129 1 -1 6 8 10 20 9 13 -2 33 9 49 26 15 16 32 29 38 29
6 0 8 11 6 24 -3 19 -1 23 10 19 13 -5 14 44 12 356 -3 338 -2 361 15 361 9 0
17 -6 17 -13 0 -19 63 -77 83 -77 10 0 20 -6 23 -14 3 -9 22 -14 54 -14 32 0
51 5 54 14 3 8 17 14 31 14 16 0 25 6 25 15 0 8 5 15 11 15 16 0 50 41 43 52
-3 4 0 7 8 6 9 -2 14 11 16 42 2 24 9 48 15 52 9 6 9 12 0 28 -7 11 -13 40
-13 65 0 31 -5 47 -15 51 -8 4 -15 16 -15 29 0 13 -7 25 -15 29 -8 3 -15 11
-15 17 0 6 -11 22 -25 35 -14 13 -25 28 -25 34 0 5 -5 10 -10 10 -17 0 -70 42
-64 52 3 4 -8 8 -25 8 -16 0 -31 4 -33 10 -4 12 -175 20 -233 11z m202 -41
c18 -6 35 -11 38 -11 3 1 12 -4 19 -11 8 -7 24 -20 36 -28 13 -8 35 -28 49
-44 14 -16 33 -36 42 -45 39 -37 58 -89 60 -163 1 -40 -1 -84 -5 -97 -13 -39
-74 -91 -115 -97 -20 -3 -38 -6 -41 -7 -26 -6 -87 19 -107 44 -14 16 -29 27
-34 23 -5 -3 -12 1 -15 9 -7 19 -41 10 -54 -13 -5 -10 -10 -159 -10 -343 0
-318 0 -326 -22 -367 -13 -24 -30 -45 -38 -48 -8 -3 -17 -8 -20 -11 -7 -9 -74
-31 -91 -31 -8 0 -27 7 -43 15 -16 9 -36 13 -43 10 -8 -2 -11 0 -8 5 3 6 2 10
-3 10 -5 0 -24 14 -41 32 l-31 32 0 418 c0 350 2 425 15 455 8 19 15 44 15 54
0 11 3 19 8 19 4 0 15 15 25 33 25 46 72 97 89 97 8 0 23 9 33 20 10 11 27 20
37 20 12 0 16 4 12 12 -4 7 -3 8 4 4 6 -4 23 -1 36 6 31 16 159 15 203 -2z"/>
<path d="M3582 4800 c-30 -11 -65 -31 -78 -45 -13 -14 -24 -23 -24 -20 0 11
-25 -18 -47 -55 -22 -36 -33 -103 -20 -116 4 -4 7 -12 7 -18 0 -6 -4 -4 -10 4
-5 8 -12 11 -16 8 -3 -4 -7 -170 -7 -369 0 -270 2 -364 11 -367 7 -2 12 -10
12 -17 0 -18 49 -29 66 -14 8 6 14 20 14 29 0 10 6 21 13 23 9 4 9 8 -2 15
-10 7 -10 11 -1 14 10 3 14 87 17 368 2 201 6 372 9 380 3 8 5 16 4 18 -1 2
11 14 27 28 32 27 94 32 149 12 34 -12 69 -62 78 -112 7 -39 24 -56 56 -56 32
0 49 17 56 56 6 34 -5 86 -17 78 -5 -3 -9 2 -9 11 0 24 -30 65 -48 65 -8 0
-12 3 -9 6 16 17 -85 76 -148 87 -17 3 -53 -3 -83 -13z m75 -11 c34 2 43 -1
43 -13 0 -10 9 -16 25 -16 24 0 95 -60 95 -81 0 -6 5 -7 10 -4 10 6 14 -7 11
-33 -1 -8 6 -16 16 -18 15 -4 18 -13 15 -44 -3 -25 -10 -40 -20 -42 -33 -9
-42 3 -42 53 0 31 -4 48 -10 44 -5 -3 -10 1 -10 9 0 22 -36 56 -60 56 -11 0
-20 7 -20 15 0 12 -14 15 -64 15 -44 0 -67 -5 -76 -15 -7 -8 -18 -15 -24 -15
-21 0 -50 -44 -52 -80 -1 -19 -6 -46 -12 -60 -5 -14 -6 -26 -1 -28 5 -2 9 -8
9 -13 0 -6 -4 -7 -10 -4 -7 4 -10 -115 -10 -350 0 -334 -1 -356 -17 -353 -17
3 -18 32 -20 413 -1 306 1 413 10 420 7 6 25 27 40 48 15 20 34 37 41 37 8 0
16 7 20 15 3 8 17 15 32 15 21 0 25 4 21 20 -3 13 -1 18 6 13 6 -4 30 -6 54
-4z"/>
<path d="M2186 4533 c-16 -3 -24 -8 -18 -12 6 -3 -8 -7 -30 -7 -22 -1 -44 -8
-49 -15 -4 -7 -18 -14 -31 -14 -13 0 -22 -5 -21 -10 1 -6 -8 -12 -20 -12 -12
-1 -27 -9 -33 -18 -6 -8 -15 -15 -19 -15 -5 0 -26 -19 -47 -42 -21 -24 -45
-50 -53 -59 -8 -9 -15 -21 -15 -27 0 -7 -4 -12 -10 -12 -5 0 -10 -8 -10 -17 0
-10 -7 -27 -15 -37 -9 -11 -15 -42 -15 -70 0 -33 -3 -46 -9 -37 -6 9 -10 -2
-13 -35 -3 -33 -1 -53 9 -60 7 -6 13 -28 13 -48 0 -25 4 -36 15 -36 8 0 15 -5
15 -11 0 -13 25 -39 38 -39 6 0 13 -7 16 -15 8 -22 193 -18 188 4 -2 8 3 11
12 8 19 -7 66 33 66 56 0 10 5 15 10 12 10 -6 11 -2 14 40 0 11 5 26 10 34 6
10 6 16 -2 19 -7 2 -12 10 -12 18 0 8 6 11 18 7 9 -3 14 -3 10 2 -4 4 -3 14 3
22 12 14 49 17 87 7 21 -6 22 -10 22 -138 0 -101 3 -137 15 -152 8 -10 15 -38
15 -62 0 -35 6 -49 35 -79 21 -22 40 -33 50 -30 9 4 15 1 15 -8 0 -12 16 -15
75 -15 43 0 75 4 75 10 0 6 6 10 13 10 8 0 24 9 37 20 13 11 27 20 32 20 4 0
8 7 8 15 0 7 7 18 15 23 23 12 23 455 0 478 -8 9 -15 26 -15 40 0 13 -4 24
-10 24 -5 0 -10 7 -10 15 0 9 -7 18 -15 21 -8 4 -15 15 -15 25 0 10 -7 19 -15
19 -8 0 -15 5 -15 10 0 12 -50 63 -71 73 -28 13 -54 32 -62 45 -4 6 -19 12
-32 12 -13 0 -25 4 -27 9 -1 6 -42 11 -90 13 -47 2 -86 7 -85 12 3 11 -11 14
-47 9z m203 -68 c16 -8 31 -11 35 -8 3 4 6 1 6 -5 0 -7 6 -12 13 -12 6 0 28
-14 47 -30 19 -16 39 -30 44 -30 5 0 22 -13 38 -30 15 -16 26 -30 23 -30 -3 0
10 -24 30 -52 19 -29 35 -60 35 -70 0 -9 4 -18 10 -20 16 -5 14 -401 -2 -427
-7 -12 -16 -21 -21 -21 -4 0 -6 -4 -2 -9 3 -5 -4 -12 -15 -16 -11 -3 -20 -11
-20 -16 0 -5 -8 -9 -17 -9 -9 0 -32 -5 -50 -12 -28 -10 -42 -9 -88 7 -68 23
-84 49 -92 158 -3 43 -10 80 -15 83 -4 3 -8 47 -8 99 0 96 -11 125 -46 125 -8
0 -12 5 -9 10 3 6 -5 10 -19 10 -14 0 -28 -5 -32 -12 -4 -7 -3 -8 4 -4 7 4 12
2 12 -4 0 -7 -8 -9 -20 -5 -26 8 -60 -3 -60 -20 0 -7 -4 -15 -9 -17 -5 -1 -11
-23 -13 -48 -5 -48 -29 -94 -54 -104 -9 -3 -12 -11 -8 -18 4 -7 3 -10 -1 -5
-5 4 -19 0 -32 -8 -25 -17 -147 -19 -137 -3 3 4 -3 8 -14 8 -10 0 -31 14 -47
32 -27 30 -28 35 -27 132 0 91 3 107 30 162 36 72 119 156 200 200 55 30 62
32 180 33 90 1 131 -3 151 -14z"/>
<path d="M2125 4359 c-120 -60 -195 -165 -195 -271 0 -29 4 -58 8 -64 10 -15
40 -24 57 -18 23 9 7 25 -20 20 -20 -4 -23 -1 -20 22 2 15 4 44 4 65 1 23 5
36 11 32 6 -3 10 3 10 15 0 24 25 65 60 99 14 13 24 27 23 32 -3 8 19 13 40
10 4 -1 10 6 13 14 4 8 17 15 29 15 13 0 25 5 27 12 6 17 158 18 158 1 0 -8
12 -13 30 -13 20 0 30 -5 30 -15 0 -8 5 -15 11 -15 7 0 22 -11 35 -25 13 -14
28 -25 34 -25 6 0 8 -5 5 -10 -3 -6 1 -13 9 -16 9 -3 16 -12 16 -19 0 -7 7
-18 15 -25 8 -7 15 -25 15 -41 0 -15 6 -32 13 -36 9 -6 12 -47 12 -151 l0
-142 -32 0 -33 0 0 150 c0 93 -4 150 -10 150 -5 0 -10 17 -10 38 0 28 -8 46
-30 70 -16 18 -35 30 -40 27 -6 -4 -9 -1 -8 6 2 7 -6 15 -16 17 -11 2 -25 10
-32 17 -16 16 -180 16 -177 0 1 -6 -11 -12 -27 -13 -33 -3 -100 -60 -100 -86
0 -9 -4 -16 -10 -16 -5 0 -10 -25 -10 -55 0 -40 -4 -57 -15 -61 -17 -7 -10
-24 9 -24 16 0 36 42 36 74 0 62 51 129 108 141 17 3 32 11 32 16 0 13 78 3
142 -17 73 -24 104 -62 113 -141 4 -36 10 -61 14 -55 4 7 8 -43 10 -109 3
-130 11 -159 45 -152 17 4 18 3 6 -6 -11 -8 -11 -11 -2 -11 7 0 24 11 37 25
24 23 25 28 25 169 0 148 -13 215 -46 242 -8 6 -14 14 -14 18 0 4 -7 14 -15
22 -8 8 -18 20 -22 27 -15 23 -100 86 -107 79 -4 -3 -11 -1 -15 7 -10 16 -72
30 -131 31 -30 0 -64 -10 -105 -31z"/>
<path d="M2453 3559 c-6 -6 -41 -11 -77 -11 -48 0 -69 -4 -73 -14 -3 -8 -14
-14 -24 -14 -12 0 -19 -7 -19 -19 0 -10 -7 -21 -15 -25 -8 -3 -15 -17 -15 -31
0 -15 -7 -33 -15 -41 -9 -9 -15 -34 -15 -60 0 -30 5 -46 15 -50 8 -4 15 -17
15 -30 0 -14 7 -27 15 -30 8 -4 15 -12 15 -20 0 -8 9 -14 20 -14 10 0 23 -7
28 -16 6 -12 18 -15 36 -12 25 5 26 4 24 -37 -1 -32 -5 -42 -15 -38 -10 4 -13
-14 -13 -86 0 -68 -3 -91 -13 -91 -10 0 -14 -25 -16 -97 -1 -60 -7 -100 -14
-105 -7 -4 -12 -43 -13 -99 -1 -58 -6 -94 -14 -99 -8 -5 -12 -38 -11 -103 1
-76 -2 -96 -14 -101 -12 -4 -15 -27 -16 -113 -1 -70 -4 -99 -9 -83 l-8 25 -3
-25 c-1 -14 -3 -60 -4 -104 -1 -43 -7 -81 -13 -85 -6 -3 -12 -48 -13 -103 -2
-62 -7 -96 -13 -95 -7 1 -12 -34 -14 -98 -2 -64 -7 -102 -15 -107 -8 -5 -12
-40 -12 -108 0 -66 -4 -100 -11 -100 -7 0 -14 -36 -18 -92 -3 -50 -10 -95 -16
-98 -5 -3 -10 -52 -11 -109 -1 -57 -5 -98 -9 -91 -13 21 -20 -16 -20 -105 0
-54 -4 -85 -11 -87 -8 -3 -12 -38 -12 -106 l0 -102 -546 3 c-508 2 -547 1
-563 -15 -10 -10 -18 -22 -18 -28 0 -5 -5 -10 -11 -10 -16 0 -48 -42 -49 -63
0 -10 -6 -25 -14 -33 -17 -17 -15 -116 3 -122 6 -2 11 -14 11 -27 0 -12 7 -28
15 -35 8 -7 15 -19 15 -26 0 -8 10 -14 25 -14 15 0 25 -6 25 -15 0 -12 73 -14
548 -15 301 0 563 -3 582 -7 52 -9 2262 -14 2256 -5 -2 4 28 8 67 8 40 0 212
1 384 2 262 2 314 4 327 17 8 8 24 15 35 15 12 0 21 6 21 15 0 8 7 15 15 15
10 0 15 10 15 31 0 17 7 37 15 45 18 18 16 125 -3 132 -7 2 -12 15 -12 28 0
15 -6 24 -15 24 -8 0 -15 7 -15 15 0 8 -5 15 -11 15 -6 0 -17 6 -24 12 -8 7
-21 19 -30 26 -12 10 -130 13 -553 15 -529 2 -537 2 -538 22 -1 11 -3 36 -4
55 -1 29 -3 32 -10 15 -6 -13 -9 15 -9 81 -1 72 -5 106 -16 120 -10 13 -14 47
-15 115 0 78 -3 98 -15 103 -9 3 -15 11 -14 18 1 7 1 51 0 97 -1 71 -3 82 -14
68 -10 -15 -12 -3 -10 65 3 95 -4 151 -18 143 -5 -4 -9 30 -9 85 0 71 -3 92
-15 96 -10 4 -14 18 -13 43 4 98 -2 171 -14 171 -9 0 -13 19 -11 68 2 80 -6
134 -18 126 -5 -3 -9 33 -9 80 0 93 -7 127 -21 104 -7 -9 -9 -8 -7 7 4 59 -3
195 -11 195 -5 0 -11 -10 -13 -22 -2 -13 -3 22 -2 77 2 69 -2 109 -11 128 -9
17 -15 66 -16 122 -1 72 -5 95 -16 99 -9 4 -14 17 -13 33 6 79 0 145 -12 140
-10 -3 -13 19 -13 92 l0 96 28 -3 c19 -3 27 1 27 12 0 9 5 16 10 16 18 0 70
59 70 79 0 10 7 24 15 31 8 7 15 27 15 46 0 18 -7 39 -15 48 -8 8 -15 26 -15
39 0 14 -7 27 -15 31 -8 3 -15 12 -15 19 0 7 -11 20 -25 27 -14 7 -25 17 -25
21 0 4 -18 6 -39 3 -27 -3 -44 0 -54 11 -14 13 -86 15 -569 15 -382 0 -557 -3
-565 -11z m877 -29 c8 -4 85 -10 171 -12 153 -5 156 -5 186 -32 43 -38 67
-114 53 -166 -12 -43 -69 -108 -112 -127 -28 -13 -28 -13 -28 -113 0 -56 4
-109 9 -118 5 -9 11 -56 14 -103 3 -48 9 -95 15 -105 5 -11 10 -49 11 -87 1
-37 9 -83 17 -102 8 -20 14 -67 14 -110 0 -42 5 -85 10 -95 6 -11 12 -50 14
-87 2 -38 4 -76 5 -86 0 -10 6 -15 11 -12 6 4 10 -21 10 -69 0 -41 6 -95 14
-118 8 -24 17 -77 20 -118 7 -112 25 -252 35 -280 5 -14 12 -65 16 -115 4 -49
10 -94 15 -100 5 -5 11 -46 13 -90 6 -89 32 -292 40 -315 3 -8 8 -50 10 -94 3
-43 9 -81 15 -85 5 -3 10 -39 11 -79 2 -74 8 -119 17 -134 3 -4 7 -18 9 -30 3
-12 9 -26 15 -32 19 -19 147 -26 619 -32 l473 -6 34 -31 c37 -33 64 -79 64
-108 0 -35 -25 -114 -40 -127 -8 -7 -28 -18 -43 -24 -22 -8 -25 -13 -15 -19 7
-5 -915 -8 -2049 -6 l-2061 2 -39 31 c-21 18 -42 46 -48 65 -5 19 -13 39 -18
46 -7 11 8 54 41 118 16 31 42 62 42 50 0 -3 4 -4 9 -1 4 3 228 8 497 10 269
2 506 5 527 5 20 0 37 5 37 11 0 5 9 10 19 10 24 0 29 14 37 103 3 39 10 79
15 89 5 9 9 55 9 102 0 50 4 86 10 88 10 3 21 79 39 288 5 52 13 106 18 120 6
14 11 54 12 89 1 36 7 73 13 84 6 11 13 59 16 106 2 47 9 94 13 103 5 9 12 55
14 101 3 47 10 100 15 118 6 19 10 61 10 95 0 34 7 78 15 97 8 20 15 67 15
105 0 37 4 72 10 78 5 5 12 47 16 94 4 47 11 93 15 102 5 9 10 58 10 108 0 49
4 90 9 90 10 0 19 50 21 130 1 36 6 68 11 71 5 3 13 48 18 100 5 52 12 106 15
121 12 48 -2 95 -33 106 -36 12 -80 58 -99 102 -16 36 -23 91 -11 84 3 -2 9 9
13 25 3 16 21 46 38 66 l33 38 244 5 c135 2 254 8 265 13 25 10 474 9 495 -1z
m-1043 -1052 c-3 -8 -6 -5 -6 6 -1 11 2 17 5 13 3 -3 4 -12 1 -19z m1474 -491
c-10 -9 -11 -8 -5 6 3 10 9 15 12 12 3 -3 0 -11 -7 -18z m-1584 -1864 c-20 -2
-52 -2 -70 0 -17 2 0 4 38 4 39 0 53 -2 32 -4z m2056 0 c-7 -2 -21 -2 -30 0
-10 3 -4 5 12 5 17 0 24 -2 18 -5z"/>
<path d="M2377 3402 c-44 -48 -6 -105 71 -107 26 0 53 -4 60 -9 16 -9 15 -50
-1 -106 -8 -25 -15 -70 -16 -100 -2 -30 -7 -62 -12 -72 -5 -9 -9 -48 -9 -86 0
-38 -6 -85 -13 -103 -8 -19 -15 -70 -16 -114 -2 -44 -7 -85 -11 -90 -5 -6 -12
-46 -15 -90 -4 -44 -9 -91 -12 -105 -7 -32 -19 -146 -18 -174 0 -11 -4 -24 -9
-28 -6 -4 -13 -46 -16 -95 -4 -48 -10 -95 -14 -103 -3 -9 -11 -54 -16 -100 -5
-47 -16 -137 -25 -200 -9 -63 -19 -146 -22 -185 -3 -38 -9 -78 -15 -88 -5 -10
-12 -62 -15 -115 -3 -53 -9 -99 -14 -102 -4 -3 -10 -44 -13 -90 -3 -47 -10
-101 -15 -120 -6 -19 -11 -63 -11 -98 0 -35 -5 -72 -11 -84 -6 -11 -15 -61
-19 -111 -5 -51 -13 -117 -19 -147 -5 -30 -13 -81 -16 -113 -5 -41 -11 -60
-23 -64 -9 -4 -19 -10 -22 -15 -4 -4 -250 -8 -548 -8 -514 -1 -544 -2 -561
-19 -20 -20 -20 -63 -1 -87 11 -12 269 -14 2017 -12 1768 3 2005 5 2013 18 21
32 22 61 5 80 -17 19 -38 20 -549 23 -292 2 -545 7 -563 11 -41 10 -51 23 -58
72 -3 21 -9 55 -14 74 -10 39 -35 230 -61 460 -6 58 -15 116 -20 130 -5 14
-10 52 -11 85 -1 33 -6 74 -11 90 -12 39 -16 65 -22 145 -8 95 -25 229 -36
278 -6 23 -10 64 -10 90 -1 26 -7 65 -15 87 -8 22 -15 67 -15 100 0 33 -7 85
-15 115 -8 30 -15 81 -15 113 0 32 -5 68 -12 80 -6 12 -13 57 -15 100 -2 44
-7 87 -12 96 -5 9 -12 55 -16 104 -4 48 -10 85 -14 83 -4 -3 -8 36 -10 86 -1
50 -6 100 -11 113 -4 12 -11 60 -15 106 -3 46 -11 88 -16 93 -11 12 -12 146
-1 162 6 10 87 43 119 48 19 3 24 11 29 45 4 21 -1 36 -15 50 -21 21 -29 21
-619 21 -568 0 -600 -1 -615 -18z m1225 -37 c7 -33 3 -35 -54 -35 -37 0 -48
-4 -48 -16 0 -8 -5 -12 -11 -9 -6 4 -20 -3 -31 -15 -19 -20 -21 -34 -20 -114
3 -100 8 -130 24 -120 5 3 9 -2 8 -12 -6 -56 1 -185 10 -179 6 3 7 -1 4 -9 -3
-9 -2 -16 3 -16 5 0 10 -39 10 -86 1 -48 6 -91 12 -97 6 -6 11 -46 11 -90 0
-44 5 -88 13 -100 6 -12 14 -60 17 -107 3 -49 9 -84 15 -83 6 1 11 -38 12 -99
1 -56 6 -104 11 -107 5 -3 11 -48 14 -99 2 -52 9 -97 16 -104 7 -7 12 -45 12
-100 0 -65 3 -88 13 -88 9 0 12 -18 11 -68 -2 -90 6 -135 20 -123 8 7 10 -10
8 -61 -4 -80 4 -141 19 -133 5 4 9 -33 9 -94 0 -77 4 -103 16 -115 9 -9 15
-30 14 -49 -5 -78 0 -148 10 -142 11 7 11 8 11 -93 1 -68 14 -144 20 -112 2 8
5 -30 8 -85 4 -64 10 -99 17 -98 7 1 10 -17 8 -53 -2 -41 1 -54 12 -54 8 0 14
-7 14 -15 0 -9 9 -15 25 -15 14 0 25 -4 25 -10 0 -7 191 -10 553 -10 305 0
556 -2 559 -5 3 -3 3 -17 0 -30 l-4 -25 -2003 -2 -2003 -3 -5 28 c-2 15 -1 29
1 32 3 3 259 5 569 5 374 0 562 3 558 10 -3 6 3 10 14 10 12 0 21 6 21 14 0 8
4 16 10 18 5 2 10 47 12 101 2 70 6 97 15 97 10 0 13 24 13 89 0 61 4 91 12
93 8 3 12 37 13 110 0 80 3 104 13 101 11 -5 19 84 15 181 -1 18 2 25 7 17 14
-23 19 4 21 108 1 56 5 97 9 91 12 -19 20 29 20 123 0 49 4 86 9 83 11 -7 17
33 16 121 0 52 4 73 13 73 8 0 12 22 12 79 0 47 6 93 15 114 9 21 15 67 15
110 0 40 4 77 10 83 5 5 11 46 13 90 2 45 8 87 12 94 5 9 4 11 -3 6 -7 -4 -12
-2 -12 3 0 6 7 11 15 11 12 0 15 15 17 73 0 39 1 79 0 87 0 8 6 19 14 23 11 6
14 32 14 113 0 68 4 103 10 99 11 -7 12 2 15 108 1 38 7 72 13 76 7 4 12 44
13 104 1 53 5 95 9 92 13 -8 20 23 20 91 0 54 3 64 18 64 14 0 15 2 2 10 -8 5
-54 10 -101 10 l-86 0 0 30 0 30 608 0 607 0 4 -25z m-1105 -377 c-3 -8 -6 -5
-6 6 -1 11 2 17 5 13 3 -3 4 -12 1 -19z m-130 -1000 c-3 -8 -6 -5 -6 6 -1 11
2 17 5 13 3 -3 4 -12 1 -19z m1260 -110 c-3 -8 -6 -5 -6 6 -1 11 2 17 5 13 3
-3 4 -12 1 -19z"/>
<path d="M2815 3332 c-105 -2 -133 -6 -148 -20 -11 -9 -22 -17 -26 -17 -3 0
-13 -5 -22 -13 -11 -9 -14 -28 -12 -69 1 -36 -3 -63 -12 -76 -10 -14 -15 -47
-15 -97 0 -46 -5 -81 -12 -88 -8 -8 -12 -47 -13 -112 0 -67 -4 -100 -11 -100
-7 0 -14 -27 -18 -62 -6 -51 -5 -64 8 -74 9 -6 16 -17 16 -24 0 -13 88 -100
102 -100 3 0 13 -6 20 -13 37 -36 112 -86 121 -80 6 4 7 1 3 -6 -5 -8 0 -14
13 -18 12 -3 21 -9 21 -13 0 -4 7 -11 16 -14 18 -7 84 29 84 45 0 6 5 7 10 4
6 -3 11 -3 11 2 3 17 8 343 9 620 1 171 5 295 11 298 15 10 11 22 -8 26 -10 2
-76 3 -148 1z m109 -471 c0 -235 -4 -436 -7 -445 -17 -44 -81 -38 -139 13 -16
13 -39 31 -52 40 -43 29 -101 75 -123 100 -43 48 -48 67 -35 130 7 31 12 82
12 112 0 30 7 72 15 94 8 22 14 73 15 113 0 40 4 81 10 91 5 10 12 47 16 82 6
60 26 95 46 83 4 -3 16 0 25 5 10 6 63 11 118 11 l100 0 -1 -429z"/>
<path d="M2750 3151 c-5 -11 -10 -34 -10 -51 0 -17 -6 -41 -14 -53 -10 -14
-16 -53 -17 -107 -1 -47 -7 -88 -12 -92 -6 -4 -11 -47 -11 -103 -1 -77 2 -99
15 -108 9 -7 17 -15 17 -19 1 -5 4 -8 7 -8 3 1 13 -6 21 -15 23 -23 49 -18 65
12 11 21 13 76 11 276 -2 216 -5 253 -19 269 -21 23 -40 23 -53 -1z m47 -276
c-2 -252 -3 -275 -19 -275 -11 0 -15 5 -12 15 4 8 1 15 -5 15 -6 0 -20 9 -31
20 -17 17 -20 32 -19 90 1 38 5 67 10 65 14 -9 21 35 18 128 -2 66 1 91 9 90
8 -2 12 18 12 62 0 58 2 65 20 65 19 0 20 -6 17 -275z"/>
<path d="M3011 2943 c-1 -242 3 -402 10 -426 6 -22 12 -62 14 -90 4 -51 15
-67 48 -67 9 0 17 -4 17 -10 0 -5 7 -10 15 -10 8 0 15 4 15 9 0 5 14 11 31 15
17 3 28 10 24 16 -3 5 1 10 9 10 16 0 63 40 59 50 -1 3 8 7 20 7 12 1 23 7 25
13 2 5 10 10 18 10 8 0 14 7 14 15 0 8 7 15 16 15 10 0 14 6 11 14 -4 9 -1 13
6 10 17 -6 77 60 77 85 0 12 5 21 10 21 13 0 13 33 1 46 -6 5 -11 36 -12 69
-3 82 -10 126 -20 119 -4 -2 -10 37 -11 88 -2 68 -6 92 -15 90 -10 -1 -13 23
-13 98 0 55 -4 100 -8 100 -4 0 -13 14 -19 31 -7 17 -21 33 -32 36 -12 3 -21
9 -21 14 0 5 -65 9 -145 9 l-144 0 0 -387z m294 325 c29 -26 34 -42 46 -151 5
-42 13 -85 18 -95 5 -9 12 -60 15 -111 3 -52 10 -99 16 -105 5 -5 10 -53 10
-105 l0 -95 -61 -58 c-33 -32 -64 -56 -68 -54 -4 3 -23 -11 -42 -30 -70 -72
-162 -94 -174 -41 -3 12 -6 212 -8 445 l-2 422 112 0 c102 0 114 -2 138 -22z"/>
<path d="M3173 3087 c-8 -116 -8 -447 1 -459 6 -9 25 -18 43 -22 26 -6 35 -3
58 21 23 25 26 34 21 83 -3 30 -9 96 -14 145 -4 50 -13 100 -20 112 -7 12 -12
41 -12 65 0 24 -5 50 -10 58 -7 10 -10 -11 -10 -68 0 -53 4 -81 10 -77 6 4 10
-30 10 -94 0 -102 5 -135 21 -126 5 3 8 -10 7 -30 -1 -21 -6 -35 -14 -35 -7 0
-15 -8 -19 -19 -3 -11 -14 -18 -27 -17 -22 1 -22 3 -26 236 -2 129 -6 238 -10
242 -4 4 -8 -3 -9 -15z"/>
<path d="M2528 2428 c-30 -16 -36 -23 -32 -44 3 -14 1 -23 -4 -20 -12 7 -22
-51 -22 -122 0 -29 -5 -62 -11 -74 -16 -30 -17 -220 -1 -226 7 -2 21 -12 30
-22 12 -12 27 -16 54 -12 21 2 36 8 33 12 -3 4 6 11 20 14 14 4 25 11 25 16 0
6 9 10 20 10 11 0 20 7 20 15 0 8 6 15 14 15 8 0 16 4 18 9 2 5 9 11 17 13 8
2 27 15 43 31 15 15 30 27 33 27 7 0 24 14 64 52 23 22 28 34 26 65 -2 21 -4
44 -4 51 -1 6 -8 12 -16 12 -8 0 -15 7 -15 15 0 8 -5 15 -10 15 -12 0 -32 15
-57 42 -9 9 -20 15 -25 12 -4 -3 -8 1 -8 9 0 8 -8 17 -17 21 -22 7 -56 28 -64
39 -8 11 -60 38 -79 42 -8 1 -32 -6 -52 -17z m124 -64 c13 -13 28 -24 34 -24
7 0 22 -11 35 -25 13 -13 27 -25 32 -25 16 0 87 -86 87 -106 0 -22 -59 -80
-120 -119 -19 -12 -46 -34 -59 -49 -14 -14 -31 -26 -39 -26 -9 0 -23 -6 -31
-13 -9 -7 -28 -18 -43 -25 -22 -9 -31 -8 -48 6 -17 14 -21 28 -21 82 0 36 4
77 10 92 5 14 11 61 12 102 1 42 6 76 10 76 5 0 9 9 9 20 0 26 21 71 31 65 4
-3 10 -1 14 4 8 14 61 -6 87 -35z"/>
<path d="M3360 2442 c-6 -2 -10 -10 -10 -18 0 -7 -6 -11 -14 -8 -7 3 -29 -9
-47 -25 -18 -17 -37 -31 -41 -31 -7 0 -42 -27 -77 -60 -9 -9 -29 -22 -45 -30
-16 -8 -31 -23 -34 -32 -2 -10 -8 -16 -12 -13 -4 3 -18 -3 -31 -13 -23 -19
-19 -42 7 -42 8 0 14 -4 14 -10 0 -5 9 -10 20 -10 11 0 20 -7 20 -15 0 -8 6
-15 14 -15 8 0 16 -3 18 -8 7 -17 61 -51 71 -45 5 3 7 1 3 -5 -3 -6 2 -13 13
-17 11 -3 22 -13 25 -21 3 -8 10 -12 16 -9 5 3 10 -1 10 -9 0 -9 7 -16 15 -16
8 0 15 -4 15 -9 0 -5 8 -12 18 -15 9 -3 30 -17 45 -32 35 -32 98 -39 127 -14
11 10 20 22 20 28 0 6 6 12 12 14 14 5 12 89 -2 98 -4 3 -10 47 -12 98 -3 61
-9 96 -17 101 -8 6 -12 27 -10 66 2 52 0 60 -23 80 -15 13 -24 26 -21 29 4 3
2 6 -3 7 -39 3 -76 3 -84 1z m74 -54 c20 -19 25 -35 30 -96 3 -40 10 -81 15
-90 5 -9 11 -65 13 -123 4 -89 2 -109 -12 -127 l-17 -21 -49 24 c-27 13 -61
34 -76 47 -14 12 -47 39 -72 58 -26 19 -56 43 -68 53 -11 9 -25 17 -31 17 -5
0 -25 16 -43 36 -30 31 -32 37 -20 50 8 8 21 14 28 14 7 0 28 14 47 30 18 17
37 30 41 30 3 0 24 16 46 35 21 20 54 43 72 52 17 8 32 19 32 24 0 17 39 9 64
-13z"/>
<path d="M2820 2026 c0 -7 -8 -17 -17 -20 -33 -13 -63 -31 -63 -38 0 -5 -7 -8
-15 -8 -8 0 -15 -7 -15 -15 0 -8 -7 -15 -16 -15 -10 0 -14 -5 -10 -16 3 -9 2
-12 -5 -9 -12 8 -54 -18 -92 -57 -15 -15 -31 -28 -36 -28 -4 0 -25 -15 -45
-34 -31 -30 -36 -41 -36 -80 0 -34 4 -46 15 -46 9 0 15 -9 15 -25 0 -14 4 -25
9 -25 12 0 71 -59 71 -71 0 -5 4 -9 9 -9 12 0 71 -59 71 -71 0 -5 7 -9 15 -9
8 0 15 -4 15 -10 0 -5 7 -10 15 -10 8 0 15 -4 15 -9 0 -5 30 -38 66 -73 89
-84 135 -131 156 -157 10 -12 22 -21 28 -21 13 0 13 33 -1 47 -7 7 -11 137
-12 394 -1 445 2 428 -84 429 -39 0 -53 -4 -53 -14z m95 -36 c12 -19 14 -720
2 -713 -5 3 -49 44 -99 92 -49 47 -95 85 -101 83 -7 -2 -9 0 -5 3 6 7 -41 57
-113 122 -40 35 -78 81 -72 87 3 3 -2 8 -11 12 -9 3 -16 12 -16 18 0 21 25 66
36 66 14 0 26 27 16 33 -4 2 -1 2 6 1 13 -4 113 68 166 118 16 16 35 28 43 28
8 0 12 4 9 8 -2 4 9 14 25 21 17 7 33 19 35 26 7 17 67 13 79 -5z"/>
<path d="M2745 1790 c-14 -6 -16 -9 -5 -10 8 -2 2 -5 -15 -9 -39 -8 -79 -65
-64 -92 5 -11 14 -17 19 -14 6 3 7 -1 4 -9 -4 -11 2 -19 20 -26 14 -5 26 -12
26 -15 0 -4 -6 -3 -12 1 -9 5 -9 3 1 -9 7 -9 17 -14 22 -11 5 3 9 1 9 -4 0
-13 42 -9 58 5 8 7 12 41 12 94 0 66 -3 84 -17 95 -21 15 -30 16 -58 4z m52
-103 c1 -62 -2 -87 -11 -87 -13 0 -46 35 -46 50 0 6 -6 10 -13 10 -17 0 -49
39 -42 50 4 6 14 10 23 11 9 0 28 13 42 29 14 16 30 27 35 26 6 -1 11 -41 12
-89z"/>
<path d="M3098 2033 c-1 -5 -16 -15 -33 -23 -21 -11 -30 -24 -32 -44 -1 -15
-6 -33 -12 -40 -14 -17 -15 -746 -1 -746 5 0 10 4 10 9 0 13 56 71 69 71 6 0
11 7 11 15 0 8 5 15 11 15 6 0 47 36 90 80 44 44 84 80 89 80 6 0 10 5 10 10
0 11 56 70 67 70 7 0 63 63 63 73 0 4 6 7 14 7 8 0 20 14 28 30 7 17 19 30 25
30 8 0 13 13 13 33 0 28 -10 43 -60 90 -33 31 -69 59 -80 62 -11 4 -20 11 -20
16 0 5 -5 9 -11 9 -7 0 -22 11 -35 25 -13 14 -26 25 -29 25 -3 0 -11 5 -18 10
-49 41 -61 49 -69 44 -4 -3 -7 0 -6 7 2 7 -6 15 -16 17 -11 2 -26 10 -34 18
-15 15 -38 19 -44 7z m60 -62 c12 -6 22 -9 22 -7 0 3 11 -5 24 -17 36 -33 57
-49 94 -75 19 -13 41 -29 48 -35 31 -28 44 -37 51 -37 4 0 22 -14 40 -32 34
-33 41 -64 23 -99 -15 -27 -266 -278 -328 -327 -28 -22 -48 -42 -45 -46 4 -3
1 -6 -5 -6 -5 0 -16 -2 -24 -5 -11 -4 -13 39 -11 237 3 300 10 417 28 445 15
23 44 25 83 4z"/>
<path d="M3186 1781 c-12 -13 -16 -38 -16 -92 0 -121 32 -138 105 -58 29 32
35 46 30 66 -4 18 -2 23 7 18 7 -4 1 4 -13 17 -74 66 -91 73 -113 49z m40 -18
c0 -10 5 -17 12 -15 6 1 12 -5 12 -13 0 -8 9 -15 21 -15 16 0 19 -4 13 -22 -4
-12 -20 -33 -35 -47 -16 -14 -29 -31 -29 -38 0 -7 -7 -13 -15 -13 -12 0 -15
15 -13 83 1 45 3 85 5 90 8 14 31 7 29 -10z"/>
<path d="M2422 1553 c-6 -2 -10 -9 -6 -14 3 -5 0 -9 -6 -9 -28 0 -45 -34 -46
-93 -1 -32 -7 -64 -13 -70 -6 -6 -11 -47 -11 -99 0 -68 -3 -88 -14 -88 -10 0
-14 -22 -15 -97 -1 -63 -6 -100 -14 -105 -8 -5 -11 -38 -10 -105 1 -60 -1 -92
-6 -84 -9 14 -12 3 -25 -120 -5 -43 -3 -48 30 -78 38 -33 88 -40 98 -14 3 7
12 13 19 13 7 0 20 11 27 25 7 14 19 25 27 25 7 0 13 7 13 15 0 8 4 15 10 15
5 0 44 34 87 75 42 41 81 75 86 75 4 0 5 5 2 10 -3 6 -1 10 4 10 6 0 52 41
102 90 50 50 93 90 96 90 2 0 21 18 40 40 20 22 42 40 50 40 7 0 13 5 13 10 0
6 -5 10 -11 10 -7 0 -79 68 -160 150 -82 83 -149 147 -149 144 0 -4 -9 3 -20
16 -11 12 -26 20 -34 17 -10 -4 -12 0 -9 14 3 10 1 19 -5 19 -5 0 -20 11 -33
25 -13 13 -31 25 -40 25 -9 0 -19 7 -23 15 -5 15 -29 18 -54 8z m104 -83 c18
-15 30 -31 27 -34 -4 -3 -1 -6 6 -6 6 0 29 -18 51 -40 22 -22 44 -40 49 -40 5
0 13 -5 17 -12 5 -7 3 -8 -7 -3 -8 5 5 -10 29 -33 24 -23 49 -42 54 -42 6 0 9
-2 6 -6 -8 -7 57 -74 72 -74 7 0 11 -3 7 -6 -3 -4 7 -20 23 -36 l29 -29 -140
-137 c-78 -75 -184 -180 -238 -232 -53 -52 -111 -105 -128 -118 -29 -21 -36
-22 -60 -10 -22 10 -29 21 -31 52 -2 21 1 50 7 65 6 14 12 67 13 118 2 50 6
89 9 87 10 -6 19 51 19 113 0 30 5 63 11 74 6 11 12 59 15 107 3 48 9 101 14
117 5 17 11 53 12 80 5 87 64 107 134 45z"/>
<path d="M2515 1280 c-3 -5 3 -10 14 -10 12 0 21 -6 21 -13 0 -14 35 -47 50
-47 6 0 9 -4 8 -8 -4 -11 57 -72 71 -72 6 0 11 -9 11 -21 0 -11 -4 -18 -8 -15
-10 6 -102 -78 -102 -94 0 -5 -5 -10 -10 -10 -14 0 -69 -62 -70 -78 0 -8 -8
-12 -17 -10 -15 3 -17 12 -14 58 1 30 8 61 15 69 6 8 12 49 12 92 1 42 4 82 8
87 3 6 2 13 -4 17 -5 3 -10 18 -10 33 0 21 -2 24 -10 12 -5 -8 -10 -50 -10
-93 0 -43 -5 -87 -11 -99 -16 -29 -22 -153 -9 -178 6 -11 20 -20 31 -20 27 0
229 206 229 233 0 24 -150 177 -173 177 -9 0 -19 -4 -22 -10z"/>
<path d="M3454 1515 c-4 -8 -11 -15 -18 -15 -6 0 -19 -8 -27 -17 -9 -10 -30
-29 -47 -43 -17 -14 -31 -30 -32 -36 0 -6 -11 -17 -25 -24 -14 -7 -25 -19 -25
-27 0 -7 -5 -13 -10 -13 -20 0 -163 -151 -153 -161 14 -14 38 -2 53 27 7 13
17 24 21 24 4 0 57 50 117 110 60 61 115 110 122 110 7 0 10 7 6 16 -3 9 -2
12 5 9 5 -4 25 0 44 9 43 21 81 6 90 -35 4 -16 10 -27 13 -25 4 2 8 -31 10
-74 1 -44 7 -91 12 -105 6 -15 10 -53 10 -85 0 -33 6 -79 14 -102 8 -24 16
-77 18 -119 3 -42 9 -82 13 -90 10 -16 12 -31 15 -114 2 -89 2 -93 -21 -114
-19 -18 -25 -19 -48 -7 -14 8 -35 23 -45 35 -11 12 -25 21 -33 21 -8 0 -11 5
-8 10 3 6 2 10 -4 10 -6 0 -24 13 -41 30 -17 16 -36 30 -42 30 -6 0 -9 2 -6 5
3 3 -24 34 -60 68 -35 34 -96 94 -135 134 -39 40 -75 69 -80 66 -6 -3 -7 -2
-4 4 3 5 -12 27 -33 48 l-40 39 22 23 c16 17 19 26 10 35 -8 8 -20 3 -47 -21
-20 -17 -43 -31 -53 -31 -10 0 -4 -7 16 -16 17 -9 32 -20 32 -25 0 -5 4 -9 9
-9 5 0 69 -60 142 -132 73 -73 137 -132 141 -130 4 1 8 -3 8 -8 0 -19 38 -52
51 -45 8 5 10 4 5 -4 -5 -8 16 -34 56 -71 34 -33 66 -60 71 -60 4 0 7 -7 7
-15 0 -8 9 -15 20 -15 11 0 23 -7 26 -15 6 -16 64 -22 64 -7 0 5 12 14 26 20
14 7 23 16 20 20 -3 5 1 20 9 35 10 19 10 27 2 30 -8 2 -12 34 -13 88 -2 124
-3 131 -14 124 -6 -4 -11 26 -12 82 0 48 -2 93 -3 98 -2 6 -3 17 -4 25 -1 13
-2 13 -11 0 -7 -10 -10 12 -10 72 0 86 -7 128 -19 110 -3 -6 -7 31 -8 81 -1
49 -7 95 -13 101 -5 5 -10 16 -10 23 0 7 -9 22 -20 33 -25 25 -117 29 -126 5z"/>
<path d="M3345 1223 c-77 -79 -86 -91 -81 -117 6 -31 144 -179 158 -170 4 3 8
-1 8 -9 0 -22 48 -50 76 -43 39 10 48 40 30 96 -9 27 -16 79 -16 115 0 36 -4
74 -9 83 -5 9 -11 31 -14 47 -9 54 -26 85 -46 85 -11 0 -56 -38 -106 -87z
m123 -4 c0 -49 5 -85 11 -89 7 -4 13 -43 16 -90 2 -52 8 -86 16 -91 7 -4 14
-14 15 -23 2 -17 -29 -33 -34 -17 -2 6 -8 9 -13 6 -4 -3 -11 6 -15 20 -3 14
-12 25 -20 25 -8 0 -14 7 -14 15 0 8 -3 15 -7 15 -5 1 -35 25 -68 55 -33 30
-65 55 -72 55 -7 0 -13 7 -13 15 0 9 6 12 15 9 9 -4 15 0 15 9 0 8 9 17 21 20
12 3 19 9 17 14 -3 4 3 16 14 26 10 9 18 14 18 10 0 -4 10 4 23 17 12 14 21
27 20 30 -1 3 7 8 19 13 17 6 18 10 8 22 -10 12 -9 15 7 15 18 0 20 -7 21 -81z"/>
<path d="M3009 1046 c-2 -2 -2 -160 1 -351 l5 -346 225 1 c135 0 226 5 228 10
2 6 18 10 35 10 49 0 75 34 73 93 -1 35 -7 52 -19 58 -9 6 -17 17 -17 24 0 8
-5 15 -10 15 -6 0 -35 25 -65 55 -30 30 -58 55 -63 55 -6 0 -13 7 -16 16 -3 8
-10 12 -16 9 -5 -3 -10 -1 -10 5 0 14 -277 290 -291 290 -5 0 -9 4 -9 10 0 11
-31 50 -41 50 -3 0 -8 -2 -10 -4z m240 -274 c75 -74 171 -168 214 -210 71 -70
78 -80 75 -112 -2 -27 -8 -36 -28 -41 -14 -4 -123 -7 -242 -8 l-218 -1 -1 238
c-1 130 -2 253 -3 272 -5 69 -17 77 203 -138z"/>
<path d="M3188 623 c-23 -27 -29 -77 -12 -101 11 -16 24 -21 57 -19 76 2 88
42 32 100 -40 41 -55 45 -77 20z m36 -18 c-4 -9 0 -15 9 -15 8 0 18 -7 21 -16
3 -8 10 -13 15 -10 5 3 12 -1 15 -9 7 -20 -12 -27 -56 -23 -31 3 -33 5 -36 46
-3 37 -1 42 17 42 14 0 19 -5 15 -15z"/>
<path d="M2840 925 c-7 -8 -19 -15 -26 -15 -8 0 -14 -7 -14 -15 0 -8 -7 -15
-15 -15 -8 0 -15 -7 -15 -15 0 -8 -4 -14 -8 -12 -4 1 -50 -40 -101 -90 -51
-51 -97 -93 -102 -93 -5 0 -9 -6 -9 -13 0 -8 -11 -20 -25 -27 -14 -7 -25 -19
-25 -27 0 -7 -7 -13 -15 -13 -8 0 -15 -6 -15 -13 0 -8 -11 -20 -25 -27 -14 -7
-25 -19 -25 -27 0 -7 -7 -13 -15 -13 -8 0 -15 -7 -15 -15 0 -8 -5 -15 -11 -15
-14 0 -39 -25 -39 -39 0 -6 -7 -11 -15 -11 -8 0 -15 -7 -15 -15 0 -8 -5 -15
-11 -15 -6 0 -17 -6 -25 -14 -7 -8 -19 -16 -26 -19 -41 -14 38 -18 358 -17
216 0 363 5 368 10 7 7 6 10 -1 10 -8 0 -12 51 -13 163 -3 187 -6 335 -8 357
-2 14 -44 37 -83 46 -10 2 -22 -3 -29 -11z m68 -50 c16 -15 18 -34 15 -243
l-3 -227 -139 -3 c-77 -1 -206 -1 -287 0 l-147 3 161 160 c282 280 317 310
379 324 2 1 11 -6 21 -14z"/>
<path d="M2757 642 c-19 -2 -27 -8 -23 -17 3 -9 0 -12 -8 -9 -20 8 -37 -20
-40 -65 -3 -43 7 -51 71 -51 40 0 63 30 63 81 0 43 -23 66 -63 61z m41 -62 l1
-50 -50 0 c-56 0 -64 16 -24 46 14 10 25 24 25 31 0 6 10 14 23 16 12 2 23 5
24 6 0 0 1 -21 1 -49z"/>
</g>
</svg>
