<?xml version="1.0" standalone="no"?>
<!DOCTYPE svg PUBLIC "-//W3C//DTD SVG 20010904//EN"
 "http://www.w3.org/TR/2001/REC-SVG-20010904/DTD/svg10.dtd">
<svg version="1.0" xmlns="http://www.w3.org/2000/svg"
 width="316.000000pt" height="303.000000pt" viewBox="0 0 316.000000 303.000000"
 preserveAspectRatio="xMidYMid meet"> <rect
  x="0"
  y="0"
  width="316"
  height="303"
  rx="32"
  ry="32"
  fill="#fff"
/>

<g transform="translate(0.000000,303.000000) scale(0.050000,-0.050000)"
fill="#000000" stroke="none">
<path d="M3039 5889 c-21 -25 -21 -45 -3 -97 15 -39 24 -188 24 -377 l0 -312
-68 -42 c-137 -84 -165 -255 -62 -377 47 -56 47 -59 19 -185 -16 -71 -119
-546 -229 -1055 -110 -509 -277 -1279 -371 -1710 -93 -431 -198 -910 -231
-1064 -34 -154 -65 -296 -71 -315 -8 -30 -36 -35 -198 -35 l-189 0 0 -130 0
-130 1458 0 1458 0 -3 125 -3 125 -185 0 c-148 0 -187 6 -194 30 -4 17 -105
471 -222 1010 -118 539 -329 1498 -468 2130 -245 1107 -253 1151 -219 1190
115 130 50 410 -94 410 -37 0 -40 613 -4 712 28 78 -1 128 -74 128 -25 0 -57
-14 -71 -31z m192 -1787 c10 -43 7 -46 -20 -23 -21 18 -30 58 -29 128 l2 103
18 -80 c10 -44 23 -102 29 -128z m-212 -10 c-19 -17 -21 -4 -12 58 7 44 14 94
16 110 2 17 7 -9 12 -58 4 -52 -2 -97 -16 -110z m-39 -292 c25 -16 21 -28 -28
-74 l-57 -56 12 50 c7 28 13 61 13 75 0 30 19 31 60 5z m324 -40 c11 -71 -4
-75 -55 -19 -32 35 -33 44 -8 60 45 29 54 23 63 -41z m-244 -190 c0 -103 3
-101 -87 -57 l-68 32 62 57 c84 76 93 73 93 -32z m254 -22 c-2 -1 -33 -18 -69
-36 l-65 -33 0 91 0 92 69 -55 c38 -31 67 -57 65 -59z m-378 -135 l47 -26 -81
-53 c-103 -68 -100 -69 -75 26 23 86 37 93 109 53z m451 -47 c15 -95 15 -95
-76 -33 l-77 52 48 27 c75 41 92 34 105 -46z m-327 -216 c0 -150 -4 -152 -156
-73 l-107 55 117 73 c150 95 146 97 146 -55z m305 21 c19 -11 35 -27 35 -35 0
-14 -185 -116 -209 -116 -6 0 -11 59 -11 132 l0 131 75 -45 c41 -25 91 -55
110 -67z m-485 -210 l110 -58 -137 -63 c-163 -74 -154 -78 -127 65 24 133 13
129 154 56z m611 -71 c30 -129 28 -129 -160 -35 l-100 50 110 56 c128 65 117
70 150 -71z m-431 -210 c0 -139 4 -137 -159 -63 l-125 56 127 62 c165 81 157
84 157 -55z m357 -9 c-4 -4 -59 -30 -122 -58 l-115 -51 0 119 0 120 122 -62
c67 -34 119 -65 115 -68z m172 -214 c18 -78 28 -147 22 -152 -8 -8 -345 125
-368 146 -7 6 274 144 300 147 8 1 28 -62 46 -141z m-754 61 l135 -63 -180
-85 c-212 -100 -199 -103 -171 43 40 200 26 193 216 105z m225 -328 l0 -151
-75 33 c-41 17 -123 50 -181 73 -122 48 -121 50 66 132 195 86 190 88 190 -87z
m290 87 c199 -83 207 -72 -145 -211 -19 -8 -25 26 -25 132 0 78 5 142 10 142
6 0 78 -28 160 -63z m-609 -229 c93 -40 176 -79 185 -87 9 -8 -85 -57 -208
-108 -123 -52 -228 -90 -232 -86 -12 13 64 353 80 353 4 0 83 -33 175 -72z
m964 -108 c44 -206 62 -199 -214 -88 -129 51 -226 100 -217 109 25 24 354 156
376 151 11 -3 36 -80 55 -172z m-652 -265 c-5 -102 -10 -186 -11 -188 -2 -3
-428 175 -437 183 -7 5 420 188 442 189 9 1 12 -82 6 -184z m356 83 c110 -45
203 -84 206 -87 4 -3 -265 -113 -400 -162 -32 -12 -35 3 -35 159 0 95 6 172
14 172 7 0 104 -37 215 -82z m-725 -252 c236 -102 242 -107 161 -139 -30 -12
-153 -64 -273 -114 l-217 -93 13 85 c24 150 75 355 88 355 7 0 110 -42 228
-94z m1123 -41 c43 -192 59 -285 49 -285 -5 0 -121 44 -258 97 -136 53 -266
103 -288 111 -32 12 367 197 453 210 8 1 27 -59 44 -133z m-757 -387 c0 -120
-6 -218 -13 -218 -7 0 -111 41 -230 92 -119 50 -239 100 -267 111 -44 18 -23
31 220 136 149 65 275 113 280 108 6 -6 10 -109 10 -229z m683 16 c5 -5 -419
-189 -518 -225 -32 -12 -35 6 -35 217 l0 230 274 -109 c150 -59 276 -110 279
-113z m-1066 -214 c162 -69 292 -127 289 -130 -18 -17 -745 -328 -751 -321 -8
7 87 510 106 568 5 15 21 23 35 17 15 -5 159 -66 321 -134z m1310 -153 c35
-161 59 -297 54 -302 -5 -5 -181 65 -391 157 -287 125 -374 171 -346 183 20 8
158 69 306 135 149 65 280 119 292 119 12 1 50 -129 85 -292z m-935 -244 l4
-167 -373 -3 c-205 -2 -373 2 -373 7 1 9 724 335 734 331 2 -1 5 -76 8 -168z
m538 -8 c182 -78 336 -147 344 -153 8 -7 -156 -9 -365 -6 l-379 6 0 161 c0
145 3 160 35 148 19 -8 184 -78 365 -156z"/>
<path d="M3725 5377 c-18 -18 -4 -46 64 -118 256 -273 260 -636 10 -907 -108
-118 -61 -161 53 -50 203 197 261 541 134 798 -76 156 -225 313 -261 277z"/>
<path d="M2363 5298 c-258 -257 -266 -652 -21 -957 69 -86 114 -113 144 -83
12 12 -12 50 -64 105 -252 262 -254 619 -3 884 143 151 91 198 -56 51z"/>
<path d="M2485 5195 c-223 -228 -217 -583 15 -805 98 -94 131 -34 35 65 -196
202 -192 489 10 698 44 46 74 93 66 105 -21 35 -38 27 -126 -63z"/>
<path d="M3609 5258 c-8 -12 23 -59 68 -105 192 -196 197 -487 12 -691 -57
-64 -64 -81 -41 -100 73 -61 252 250 252 438 0 206 -227 563 -291 458z"/>
<path d="M2645 5147 c-197 -80 -204 -554 -10 -682 76 -50 81 21 8 105 -126
143 -122 344 9 484 78 82 74 125 -7 93z"/>
<path d="M3508 5137 c-7 -12 1 -30 19 -40 158 -89 175 -410 30 -569 -33 -36
-34 -45 -9 -66 59 -49 192 190 192 342 -1 176 -175 425 -232 333z"/>
<path d="M2712 4999 c-112 -134 -78 -409 55 -435 45 -9 41 26 -9 95 -60 81
-55 204 10 290 74 97 22 143 -56 50z"/>
<path d="M3425 5037 c-17 -17 -10 -39 26 -87 63 -82 67 -221 9 -295 -50 -64
-51 -95 -2 -95 48 0 122 145 122 237 0 127 -105 290 -155 240z"/>
</g>
</svg>
