<?xml version="1.0" standalone="no"?>
<!DOCTYPE svg PUBLIC "-//W3C//DTD SVG 20010904//EN"
 "http://www.w3.org/TR/2001/REC-SVG-20010904/DTD/svg10.dtd">
<svg version="1.0" xmlns="http://www.w3.org/2000/svg"
 width="460.000000pt" height="363.000000pt" viewBox="0 0 460.000000 363.000000"
 preserveAspectRatio="xMidYMid meet"><rect
  x="0"
  y="0"
  width="460"
  height="363"
  rx="360"
  ry="260"
  fill="#fff"
/>

<g transform="translate(0.000000,363.000000) scale(0.100000,-0.100000)"
fill="#000000" stroke="none">
<path d="M2296 2883 c-54 -27 -121 -47 -286 -84 -424 -95 -1451 -341 -1445
-347 2 -2 88 15 192 37 539 115 902 189 1422 291 56 11 127 -7 218 -56 l68
-36 170 6 c105 4 219 2 295 -5 180 -17 175 -17 178 7 2 16 -8 28 -42 48 -25
14 -66 44 -91 66 -50 43 -52 44 -165 60 -41 6 -104 20 -139 30 -48 15 -91 20
-185 20 -119 -1 -122 -2 -190 -37z"/>
<path d="M2035 2703 c-11 -2 -99 -19 -195 -38 -286 -55 -1453 -286 -1477 -292
-24 -5 -32 -33 -10 -33 6 0 41 5 77 10 56 8 674 98 1385 201 259 38 314 36
417 -13 107 -51 155 -94 363 -324 103 -115 201 -222 218 -239 29 -29 29 -29
-5 20 -19 28 -84 120 -143 205 -159 228 -288 400 -332 442 -55 54 -98 68 -195
67 -46 -1 -92 -3 -103 -6z"/>
<path d="M2600 2660 c-132 -9 -143 -12 -159 -46 -15 -33 -11 -41 115 -206 55
-73 126 -171 159 -218 73 -106 119 -156 170 -183 38 -21 51 -22 341 -22 351 0
339 -3 331 85 -11 123 -118 342 -225 460 -68 76 -132 108 -243 120 -131 14
-362 19 -489 10z"/>
<path d="M533 2443 c4 -3 10 -3 14 0 3 4 0 7 -7 7 -7 0 -10 -3 -7 -7z"/>
<path d="M2042 2420 c-37 -16 -43 -52 -40 -248 l3 -184 27 -23 c20 -17 44 -24
100 -29 40 -4 108 -12 151 -17 92 -12 115 -7 123 28 15 60 -93 305 -184 418
-47 59 -48 60 -102 62 -30 1 -65 -2 -78 -7z"/>
<path d="M1532 2358 l-52 -10 2 -236 3 -237 84 -22 c46 -12 88 -20 93 -17 4 3
8 124 8 270 l0 264 -42 -1 c-24 -1 -67 -6 -96 -11z"/>
<path d="M1252 2317 l-62 -9 2 -185 3 -186 62 -18 c34 -9 64 -14 67 -11 9 8 7
410 -1 415 -5 2 -36 -1 -71 -6z"/>
<path d="M1010 2283 c-19 -3 -38 -10 -42 -16 -4 -7 -8 -72 -8 -145 0 -131 0
-133 24 -142 14 -5 37 -10 53 -12 l28 -3 0 159 c0 99 -4 160 -10 161 -5 1 -26
0 -45 -2z"/>
<path d="M808 2253 c-16 -4 -18 -18 -18 -118 0 -121 2 -125 56 -125 l24 0 0
125 c0 123 0 125 -22 124 -13 -1 -31 -3 -40 -6z"/>
<path d="M613 2224 c-9 -4 -13 -31 -13 -85 0 -76 1 -79 26 -85 14 -4 30 -2 35
3 6 6 9 45 7 89 -3 71 -5 79 -23 81 -11 1 -26 -1 -32 -3z"/>
<path d="M496 2194 c-3 -9 -6 -36 -6 -60 0 -37 4 -46 23 -53 12 -5 25 -7 30
-4 4 2 7 33 7 69 0 61 -1 64 -24 64 -13 0 -27 -7 -30 -16z"/>
<path d="M340 1998 l0 -45 508 -132 c279 -73 545 -143 592 -156 47 -12 150
-39 230 -60 200 -51 239 -64 288 -92 42 -24 54 -49 28 -59 -7 -3 -141 29 -296
71 -174 47 -291 74 -306 71 -15 -4 -26 -16 -30 -32 -6 -23 -11 -26 -38 -21
-17 3 -186 58 -374 123 -295 101 -345 121 -353 141 -5 13 -13 23 -18 23 -5 0
-18 3 -28 6 -10 3 -7 -1 6 -9 14 -8 28 -22 31 -32 8 -23 736 -298 768 -290 12
3 27 17 32 30 5 14 17 25 27 25 10 0 211 -58 447 -129 236 -71 434 -127 442
-124 7 2 15 11 18 18 9 26 -65 155 -123 214 -102 105 -189 146 -399 191 -76
16 -416 89 -757 164 -341 74 -637 138 -657 141 l-38 7 0 -44z"/>
<path d="M2566 1894 c-9 -23 37 -104 86 -151 46 -44 193 -122 270 -142 25 -7
70 -14 100 -15 50 -1 53 0 56 25 5 40 -88 127 -197 183 -97 50 -262 116 -291
116 -10 0 -21 -7 -24 -16z"/>
<path d="M3637 1799 c-55 -93 -51 -179 9 -179 36 0 84 47 84 81 0 48 -31 159
-45 159 -6 0 -28 -28 -48 -61z"/>
<path d="M620 1660 c8 -5 20 -10 25 -10 6 0 3 5 -5 10 -8 5 -19 10 -25 10 -5
0 -3 -5 5 -10z"/>
<path d="M670 1640 c8 -5 20 -10 25 -10 6 0 3 5 -5 10 -8 5 -19 10 -25 10 -5
0 -3 -5 5 -10z"/>
<path d="M2498 1629 c-10 -5 -18 -21 -18 -34 0 -41 69 -226 135 -362 93 -190
118 -203 379 -203 208 0 571 32 671 58 68 18 95 105 102 322 7 185 7 185 -110
147 -125 -40 -212 -50 -402 -44 -186 5 -372 33 -581 86 -65 17 -128 33 -139
36 -11 3 -28 0 -37 -6z"/>
<path d="M711 1626 c17 -17 644 -276 667 -276 21 0 38 9 54 28 13 15 29 31 36
36 17 10 622 -232 622 -249 0 -7 -7 -18 -15 -25 -8 -7 -15 -16 -15 -21 0 -13
247 -11 255 2 7 11 -161 174 -179 174 -6 0 -10 -10 -8 -23 5 -33 -21 -37 -86
-14 -425 154 -537 192 -562 192 -29 0 -70 -29 -70 -50 0 -32 -59 -17 -321 85
-151 58 -295 115 -321 125 -44 19 -66 25 -57 16z"/>
<path d="M2462 1228 c-7 -7 -12 -39 -12 -75 0 -54 3 -65 23 -77 33 -22 226
-84 271 -88 52 -4 58 17 9 37 -23 10 -76 55 -134 115 -97 101 -127 118 -157
88z"/>
<path d="M3623 1004 c-3 -9 0 -20 7 -24 33 -20 514 -180 527 -176 8 3 13 14
11 23 -2 12 -70 40 -253 105 -138 48 -258 87 -268 88 -10 0 -20 -7 -24 -16z"/>
<path d="M3073 964 c-3 -8 -1 -20 4 -25 5 -5 233 -86 507 -181 492 -169 530
-179 513 -135 -3 8 -77 39 -169 70 -90 30 -316 107 -502 171 -186 64 -341 116
-343 116 -2 0 -6 -7 -10 -16z"/>
</g>
</svg>
