<?xml version="1.0" standalone="no"?>
<!DOCTYPE svg PUBLIC "-//W3C//DTD SVG 20010904//EN"
 "http://www.w3.org/TR/2001/REC-SVG-20010904/DTD/svg10.dtd">
<svg version="1.0" xmlns="http://www.w3.org/2000/svg"
 width="304.000000pt" height="270.000000pt" viewBox="0 0 304.000000 270.000000"
 preserveAspectRatio="xMidYMid meet"> <rect
  x="0"
  y="0"
  width="304"
  height="270"
  fill="#fff"
/>

<g transform="translate(0.000000,270.000000) scale(0.100000,-0.100000)"
fill="#000000" stroke="none">
<path d="M1600 2527 c-56 -26 -100 -74 -100 -109 0 -15 9 -18 55 -18 l55 0 0
-40 0 -40 -40 0 -40 0 0 -245 0 -245 -200 0 -200 0 0 105 c0 63 4 105 10 105
6 0 10 9 10 20 0 11 -4 20 -10 20 -5 0 -10 11 -10 25 l0 25 -125 0 c-119 0
-125 -1 -125 -20 0 -11 -6 -30 -12 -41 -10 -17 -10 -23 0 -26 9 -4 12 -51 12
-189 l0 -185 -47 3 -48 3 -3 78 -3 77 -139 0 -140 0 0 -136 0 -135 -32 3 c-26
2 -34 8 -36 26 -5 35 -27 20 -30 -21 l-3 -37 50 0 51 0 0 -310 0 -310 -50 0
-50 0 -2 -262 -3 -263 -58 -3 -57 -3 0 -74 0 -75 -80 0 -81 0 3 -72 3 -73
1395 0 1395 0 3 72 3 72 -78 3 -78 3 -3 73 -3 72 -74 0 c-43 0 -75 4 -75 10 0
6 -20 10 -45 10 -38 0 -45 3 -45 20 0 17 7 20 45 20 25 0 45 5 45 10 0 6 -20
10 -45 10 -38 0 -45 3 -45 20 0 17 7 20 45 20 25 0 45 5 45 10 0 6 -6 10 -12
9 -7 -1 -28 -1 -45 0 -26 1 -33 5 -33 20 0 16 8 21 48 24 l47 3 -47 2 c-44 2
-48 4 -48 26 0 22 5 25 48 29 l47 3 -47 2 c-44 2 -48 4 -48 26 0 22 5 25 48
29 l47 3 -47 2 c-44 2 -48 4 -48 26 0 22 5 25 48 29 l47 3 -47 2 c-44 2 -48 4
-48 26 0 22 5 25 48 29 l47 3 -47 2 c-44 2 -48 4 -48 26 0 22 5 25 48 29 l47
3 -47 2 c-43 2 -48 4 -48 26 0 22 3 24 45 21 25 -1 45 1 45 6 0 5 -20 9 -45 9
-38 0 -45 3 -45 20 0 17 7 20 45 20 25 0 45 5 45 10 0 6 -20 10 -45 10 -38 0
-45 3 -45 20 0 17 7 20 45 20 25 0 45 3 45 8 0 4 -20 6 -45 4 l-45 -4 -1 48
c-4 187 -5 179 15 184 16 5 11 15 -38 79 l-56 74 0 79 0 78 -39 0 c-33 0 -40
-4 -43 -22 -3 -20 -7 -17 -37 25 -19 26 -37 47 -40 47 -4 0 -38 -42 -76 -92
l-70 -93 -5 190 -5 190 -132 3 -133 3 0 244 0 245 -40 0 -40 0 0 40 0 40 55 0
c48 0 55 3 55 19 0 29 -49 81 -95 102 -46 21 -155 24 -195 6z m140 -167 l0
-40 -45 0 -45 0 0 40 0 40 45 0 45 0 0 -40z m-210 -610 l0 -30 -200 0 -200 0
0 30 0 30 200 0 200 0 0 -30z m550 0 l0 -30 -110 0 -110 0 0 30 0 30 110 0
110 0 0 -30z m-605 -75 l55 -7 0 -43 c0 -26 -6 -47 -16 -56 -44 -36 -44 -39
-44 -629 l0 -561 -22 3 -23 3 -3 263 -2 262 -145 0 -145 0 0 378 c0 208 2 381
5 383 8 8 281 11 340 4z m603 -153 l3 -153 -36 -46 c-31 -40 -34 -48 -19 -53
14 -5 16 -22 16 -116 1 -186 3 -174 -37 -174 -19 0 -35 -4 -35 -10 0 -5 16
-10 35 -10 31 0 35 -3 35 -25 0 -22 -4 -25 -35 -25 -19 0 -35 -4 -35 -8 0 -4
16 -6 35 -4 33 4 35 3 35 -27 0 -29 -3 -31 -37 -33 l-38 -1 38 -4 c32 -4 37
-8 37 -29 0 -21 -5 -24 -35 -24 -19 0 -35 -4 -35 -10 0 -5 16 -10 35 -10 31 0
35 -3 35 -25 0 -22 -4 -25 -35 -25 -19 0 -35 -4 -35 -10 0 -5 16 -10 35 -10
31 0 35 -3 35 -25 0 -22 -4 -25 -35 -25 -19 0 -35 -4 -35 -10 0 -5 16 -10 35
-10 31 0 35 -3 35 -25 0 -22 -4 -25 -35 -25 -19 0 -35 -4 -35 -8 0 -4 16 -6
35 -4 34 4 35 3 35 -28 0 -31 -1 -32 -35 -28 -19 2 -35 0 -35 -4 0 -4 16 -8
35 -8 31 0 35 -3 35 -25 0 -22 -4 -25 -35 -25 -19 0 -35 -4 -35 -10 0 -5 16
-10 35 -10 28 0 35 -4 35 -20 0 -18 -6 -20 -57 -18 l-58 3 -2 558 c-3 586 -3
590 -47 626 -10 9 -16 30 -16 57 0 51 3 52 130 49 l85 -1 3 -152z m-1198 -7
l0 -125 -50 0 -50 0 0 125 0 125 50 0 50 0 0 -125z m0 -216 l0 -50 -47 3 -48
3 -3 48 -3 47 50 0 51 0 0 -51z m0 -234 l0 -155 -50 0 -50 0 0 155 0 155 50 0
50 0 0 -155z"/>
</g>
</svg>
